<svg xmlns="http://www.w3.org/2000/svg" xmlns:xlink="http://www.w3.org/1999/xlink" width="768" zoomAndPan="magnify" viewBox="0 0 576 576" height="768" preserveAspectRatio="xMidYMid meet" version="1.0"><defs><filter x="0%" y="0%" width="100%" height="100%" id="03d66882f0"><feColorMatrix values="0 0 0 0 1 0 0 0 0 1 0 0 0 0 1 0 0 0 1 0" color-interpolation-filters="sRGB"/></filter><mask id="6d4b53755d"><g filter="url(#03d66882f0)"><rect x="-57.6" width="691.2" fill="#000000" y="-57.6" height="691.2" fill-opacity="0.8"/></g></mask><clipPath id="807844027b"><path d="M 0.722656 1 L 360.839844 1 L 360.839844 363.933594 L 0.722656 363.933594 Z M 0.722656 1 " clip-rule="nonzero"/></clipPath><clipPath id="50c4e6587f"><rect x="0" width="361" y="0" height="365"/></clipPath><mask id="11c718048a"><g filter="url(#03d66882f0)"><rect x="-57.6" width="691.2" fill="#000000" y="-57.6" height="691.2" fill-opacity="0.1294"/></g></mask><clipPath id="e1ef93fa50"><path d="M 0 0 L 576 0 L 576 576 L 0 576 Z M 0 0 " clip-rule="nonzero"/></clipPath><clipPath id="991e1500d7"><rect x="0" width="576" y="0" height="576"/></clipPath></defs><g mask="url(#6d4b53755d)"><g transform="matrix(1, 0, 0, 1, 117, 95)"><g clip-path="url(#50c4e6587f)"><g clip-path="url(#807844027b)"><path fill="#02a9df" d="M 175.492188 25.0625 C 204.433594 25.0625 231.609375 32.851562 255.078125 46.464844 L 249.042969 52.5625 C 246.972656 54.726562 246.035156 57.707031 246.417969 60.835938 L 246.816406 90.773438 C 223.367188 73.0625 194.65625 64.761719 165.269531 67.300781 C 99.746094 72.996094 51.019531 131.480469 56.648438 197.675781 C 59.394531 229.953125 74.464844 259.15625 99.089844 279.910156 C 120.722656 298.136719 147.453125 307.882812 175.300781 307.882812 C 178.753906 307.882812 182.230469 307.730469 185.714844 307.429688 C 251.238281 301.734375 299.964844 243.246094 294.335938 177.050781 C 292.398438 154.292969 284.332031 133.074219 271.117188 115.261719 L 301.328125 115.515625 C 301.652344 115.546875 301.960938 115.554688 302.25 115.554688 C 304.980469 115.554688 307.648438 114.457031 309.566406 112.535156 L 314.964844 107.136719 C 328.332031 130.8125 335.980469 158.203125 335.980469 187.363281 C 335.980469 276.859375 263.984375 349.664062 175.492188 349.664062 C 86.996094 349.664062 15.003906 276.859375 15.003906 187.363281 C 15.003906 97.871094 86.996094 25.0625 175.492188 25.0625 Z M 217.261719 135.453125 C 213.332031 132.25 209.011719 129.460938 204.339844 127.179688 C 188.488281 119.429688 170.59375 118.347656 153.9375 124.132812 C 119.445312 136.125 101.023438 174.214844 112.875 209.0625 C 118.648438 226.039062 130.644531 239.671875 146.644531 247.492188 C 155.773438 251.957031 165.582031 254.003906 175.441406 254.003906 C 182.699219 254.003906 189.984375 252.980469 197.042969 250.082031 C 231.535156 238.476562 249.960938 200.234375 238.109375 165.386719 C 235.609375 158.035156 231.9375 151.40625 227.285156 145.519531 L 254.964844 117.84375 C 269.402344 134.660156 278.207031 155.601562 280.136719 178.242188 C 285.101562 236.613281 242.1875 288.1875 184.480469 293.203125 C 156.714844 295.613281 129.664062 287.015625 108.265625 268.984375 C 86.5625 250.691406 73.273438 224.941406 70.851562 196.464844 C 65.882812 138.09375 108.792969 86.527344 166.5 81.515625 C 169.566406 81.25 172.617188 81.117188 175.660156 81.117188 C 200.15625 81.117188 223.683594 89.695312 242.714844 105.738281 C 243.480469 106.382812 244.234375 107.042969 244.980469 107.703125 Z M 170.453125 192.410156 C 171.84375 193.800781 173.667969 194.5 175.488281 194.5 C 177.316406 194.5 179.140625 193.800781 180.527344 192.410156 L 217.078125 155.8125 C 220.277344 160.140625 222.832031 164.980469 224.621094 170.238281 C 233.953125 197.683594 219.484375 227.675781 192.367188 237.105469 C 179.335938 241.640625 165.316406 240.792969 152.898438 234.722656 C 140.332031 228.578125 130.910156 217.839844 126.367188 204.488281 C 117.03125 177.046875 131.5 147.050781 158.613281 137.625 C 164.144531 135.703125 169.847656 134.75 175.53125 134.75 C 183.253906 134.75 190.933594 136.511719 198.085938 140.003906 C 201.3125 141.582031 204.328125 143.46875 207.113281 145.617188 L 170.453125 182.320312 C 167.667969 185.105469 167.667969 189.625 170.453125 192.410156 Z M 296.574219 24.765625 L 296.574219 56.160156 L 261.113281 91.601562 L 260.671875 61.085938 Z M 310.027344 62.984375 L 339.371094 62.984375 L 300.6875 101.476562 L 271.796875 101.203125 Z M 175.492188 363.933594 C 271.84375 363.933594 350.234375 284.726562 350.234375 187.363281 C 350.234375 154.242188 341.152344 123.222656 325.382812 96.703125 L 357.597656 64.460938 C 361.386719 60.671875 360.808594 56.574219 360.105469 54.390625 C 359.421875 52.351562 357.449219 48.835938 351.878906 47.980469 L 351.042969 47.910156 L 345.652344 48.480469 L 311.058594 48.480469 L 311.058594 11.617188 C 311.78125 9.867188 311.578125 8.234375 311.421875 7.417969 L 310.480469 3.15625 L 306.425781 1.851562 C 301.15625 0.125 297.910156 3.257812 296.742188 4.390625 L 265.421875 36.019531 C 239.136719 20.011719 208.363281 10.792969 175.5 10.792969 C 79.144531 10.792969 0.753906 90.003906 0.753906 187.363281 C 0.753906 284.726562 79.140625 363.933594 175.492188 363.933594 " fill-opacity="1" fill-rule="nonzero"/></g></g></g></g><g mask="url(#11c718048a)"><g transform="matrix(1, 0, 0, 1, 0, -0.000000000000014788)"><g clip-path="url(#991e1500d7)"><g clip-path="url(#e1ef93fa50)"><path fill="#709198" d="M 288.550781 0 C 129.1875 0 0 129.1875 0 288.550781 C 0 447.910156 129.1875 577.101562 288.550781 577.101562 C 447.910156 577.101562 577.101562 447.910156 577.101562 288.550781 C 577.101562 129.1875 447.910156 0 288.550781 0 " fill-opacity="1" fill-rule="nonzero"/></g></g></g></g></svg>