<svg xmlns="http://www.w3.org/2000/svg" xmlns:xlink="http://www.w3.org/1999/xlink" width="768" zoomAndPan="magnify" viewBox="0 0 576 576" height="768" preserveAspectRatio="xMidYMid meet" version="1.0"><defs><filter x="0%" y="0%" width="100%" height="100%" id="858255b587"><feColorMatrix values="0 0 0 0 1 0 0 0 0 1 0 0 0 0 1 0 0 0 1 0" color-interpolation-filters="sRGB"/></filter><mask id="67bdcaa4f4"><g filter="url(#858255b587)"><rect x="-57.6" width="691.2" fill="#000000" y="-57.6" height="691.2" fill-opacity="0.8"/></g></mask><clipPath id="8a3376d4a0"><path d="M 87 0.921875 L 210 0.921875 L 210 91 L 87 91 Z M 87 0.921875 " clip-rule="nonzero"/></clipPath><clipPath id="576766ce8c"><path d="M 1.105469 41 L 295.925781 41 L 295.925781 417.511719 L 1.105469 417.511719 Z M 1.105469 41 " clip-rule="nonzero"/></clipPath><clipPath id="6c666c704f"><rect x="0" width="298" y="0" height="419"/></clipPath><mask id="542b097e4f"><g filter="url(#858255b587)"><rect x="-57.6" width="691.2" fill="#000000" y="-57.6" height="691.2" fill-opacity="0.1294"/></g></mask><clipPath id="5508bb71cd"><path d="M 0 0 L 576 0 L 576 576 L 0 576 Z M 0 0 " clip-rule="nonzero"/></clipPath><clipPath id="9e24c282ad"><rect x="0" width="576" y="0" height="576"/></clipPath></defs><g mask="url(#67bdcaa4f4)"><g transform="matrix(1, 0, 0, 1, 140, 79)"><g clip-path="url(#6c666c704f)"><g clip-path="url(#8a3376d4a0)"><path fill="#02a9df" d="M 96.3125 82.234375 L 200.734375 82.234375 L 200.734375 36.710938 L 176.25 36.710938 C 173.847656 36.710938 171.898438 34.769531 171.898438 32.375 C 171.898438 19.824219 161.414062 9.613281 148.523438 9.613281 C 135.632812 9.613281 125.148438 19.824219 125.148438 32.375 C 125.148438 34.769531 123.199219 36.710938 120.796875 36.710938 L 96.3125 36.710938 Z M 205.085938 90.914062 L 91.960938 90.914062 C 89.558594 90.914062 87.609375 88.972656 87.609375 86.574219 L 87.609375 32.375 C 87.609375 29.976562 89.558594 28.035156 91.960938 28.035156 L 116.75 28.035156 C 118.917969 12.742188 132.335938 0.933594 148.523438 0.933594 C 164.707031 0.933594 178.132812 12.742188 180.296875 28.035156 L 205.085938 28.035156 C 207.488281 28.035156 209.4375 29.976562 209.4375 32.375 L 209.4375 86.574219 C 209.4375 88.972656 207.488281 90.914062 205.085938 90.914062 " fill-opacity="1" fill-rule="evenodd"/></g><path fill="#02a9df" d="M 148.523438 37.675781 C 143.96875 37.675781 140.253906 41.375 140.253906 45.925781 C 140.253906 50.472656 143.964844 54.171875 148.523438 54.171875 C 153.085938 54.171875 156.792969 50.472656 156.792969 45.925781 C 156.792969 41.375 153.085938 37.675781 148.523438 37.675781 Z M 148.523438 62.851562 C 139.164062 62.851562 131.550781 55.257812 131.550781 45.925781 C 131.550781 36.589844 139.164062 29 148.523438 29 C 157.882812 29 165.496094 36.59375 165.496094 45.925781 C 165.496094 55.257812 157.882812 62.851562 148.523438 62.851562 " fill-opacity="1" fill-rule="evenodd"/><path fill="#02a9df" d="M 237.957031 127.84375 L 59.089844 127.84375 C 56.6875 127.84375 54.738281 125.902344 54.738281 123.507812 C 54.738281 121.113281 56.6875 119.171875 59.089844 119.171875 L 237.957031 119.171875 C 240.363281 119.171875 242.308594 121.113281 242.308594 123.507812 C 242.308594 125.902344 240.363281 127.84375 237.957031 127.84375 " fill-opacity="1" fill-rule="evenodd"/><path fill="#02a9df" d="M 237.957031 180.867188 L 59.089844 180.867188 C 56.6875 180.867188 54.738281 178.925781 54.738281 176.527344 C 54.738281 174.132812 56.6875 172.1875 59.089844 172.1875 L 237.957031 172.1875 C 240.363281 172.1875 242.308594 174.132812 242.308594 176.527344 C 242.308594 178.925781 240.363281 180.867188 237.957031 180.867188 " fill-opacity="1" fill-rule="evenodd"/><path fill="#02a9df" d="M 237.957031 233.890625 L 59.089844 233.890625 C 56.6875 233.890625 54.738281 231.949219 54.738281 229.550781 C 54.738281 227.15625 56.6875 225.210938 59.089844 225.210938 L 237.957031 225.210938 C 240.363281 225.210938 242.308594 227.15625 242.308594 229.550781 C 242.308594 231.949219 240.363281 233.890625 237.957031 233.890625 " fill-opacity="1" fill-rule="evenodd"/><path fill="#02a9df" d="M 133.042969 275.503906 L 140.066406 280.570312 C 141.597656 281.679688 142.238281 283.640625 141.652344 285.433594 L 138.957031 293.65625 L 145.960938 288.554688 C 147.492188 287.449219 149.5625 287.449219 151.089844 288.554688 L 158.089844 293.65625 L 155.394531 285.433594 C 154.808594 283.640625 155.449219 281.679688 156.980469 280.570312 L 164.003906 275.503906 L 155.335938 275.519531 C 155.332031 275.519531 155.328125 275.519531 155.328125 275.519531 C 153.4375 275.519531 151.765625 274.304688 151.1875 272.511719 L 148.523438 264.28125 L 145.863281 272.511719 C 145.28125 274.304688 143.609375 275.519531 141.71875 275.519531 C 141.71875 275.519531 141.714844 275.519531 141.714844 275.519531 Z M 166.417969 309.421875 C 165.519531 309.421875 164.613281 309.144531 163.851562 308.589844 L 148.523438 297.433594 L 133.195312 308.589844 C 131.667969 309.695312 129.601562 309.703125 128.074219 308.59375 C 126.546875 307.484375 125.910156 305.519531 126.492188 303.734375 L 132.394531 285.742188 L 117.023438 274.65625 C 115.492188 273.546875 114.851562 271.585938 115.433594 269.792969 C 116.015625 268.007812 117.691406 266.796875 119.570312 266.796875 C 119.574219 266.796875 119.578125 266.796875 119.578125 266.796875 L 138.554688 266.832031 L 144.382812 248.824219 C 144.964844 247.03125 146.636719 245.820312 148.527344 245.820312 C 150.410156 245.820312 152.085938 247.03125 152.664062 248.824219 L 158.492188 266.832031 L 177.46875 266.796875 C 177.46875 266.796875 177.472656 266.796875 177.476562 266.796875 C 179.359375 266.796875 181.03125 268.007812 181.613281 269.792969 C 182.195312 271.585938 181.554688 273.546875 180.027344 274.65625 L 164.65625 285.742188 L 170.550781 303.734375 C 171.140625 305.519531 170.5 307.484375 168.972656 308.59375 C 168.214844 309.144531 167.316406 309.421875 166.417969 309.421875 " fill-opacity="1" fill-rule="evenodd"/><path fill="#02a9df" d="M 77.296875 321.0625 C 78.195312 321.0625 79.097656 321.34375 79.859375 321.898438 L 86.867188 326.992188 L 84.171875 318.773438 C 83.582031 316.980469 84.226562 315.015625 85.757812 313.910156 L 92.777344 308.84375 L 84.109375 308.859375 C 84.109375 308.859375 84.105469 308.859375 84.101562 308.859375 C 82.214844 308.859375 80.542969 307.644531 79.960938 305.851562 L 77.296875 297.625 L 74.632812 305.851562 C 74.054688 307.644531 72.378906 308.859375 70.496094 308.859375 C 70.492188 308.859375 70.492188 308.859375 70.488281 308.859375 L 61.820312 308.84375 L 68.839844 313.910156 C 70.371094 315.015625 71.011719 316.980469 70.425781 318.773438 L 67.730469 326.992188 L 74.734375 321.898438 C 75.496094 321.34375 76.398438 321.0625 77.296875 321.0625 Z M 95.1875 342.761719 C 94.289062 342.761719 93.390625 342.484375 92.625 341.925781 L 77.296875 330.773438 L 61.972656 341.925781 C 60.445312 343.035156 58.375 343.039062 56.84375 341.929688 C 55.320312 340.824219 54.679688 338.859375 55.269531 337.070312 L 61.164062 319.082031 L 45.792969 307.992188 C 44.265625 306.890625 43.625 304.925781 44.210938 303.132812 C 44.789062 301.34375 46.460938 300.140625 48.347656 300.140625 C 48.347656 300.140625 48.351562 300.140625 48.351562 300.140625 L 67.332031 300.175781 L 73.160156 282.164062 C 73.738281 280.371094 75.410156 279.15625 77.296875 279.15625 C 79.183594 279.15625 80.855469 280.371094 81.4375 282.164062 L 87.265625 300.175781 L 106.238281 300.140625 C 106.246094 300.140625 106.246094 300.140625 106.25 300.140625 C 108.132812 300.140625 109.804688 301.34375 110.386719 303.132812 C 110.972656 304.925781 110.328125 306.890625 108.796875 307.992188 L 93.425781 319.082031 L 99.328125 337.070312 C 99.914062 338.859375 99.277344 340.824219 97.746094 341.929688 C 96.984375 342.484375 96.085938 342.761719 95.1875 342.761719 " fill-opacity="1" fill-rule="evenodd"/><path fill="#02a9df" d="M 219.75 321.0625 C 220.648438 321.0625 221.550781 321.34375 222.3125 321.898438 L 229.320312 326.992188 L 226.625 318.773438 C 226.035156 316.980469 226.675781 315.015625 228.207031 313.910156 L 235.230469 308.84375 L 226.566406 308.859375 C 226.5625 308.859375 226.558594 308.859375 226.558594 308.859375 C 224.667969 308.859375 222.992188 307.644531 222.414062 305.851562 L 219.75 297.625 L 217.085938 305.851562 C 216.503906 307.644531 214.832031 308.859375 212.945312 308.859375 C 212.941406 308.859375 212.941406 308.859375 212.9375 308.859375 L 204.273438 308.84375 L 211.292969 313.910156 C 212.828125 315.015625 213.464844 316.980469 212.875 318.773438 L 210.179688 326.992188 L 217.1875 321.898438 C 217.949219 321.34375 218.851562 321.0625 219.75 321.0625 Z M 237.640625 342.761719 C 236.742188 342.761719 235.84375 342.484375 235.078125 341.925781 L 219.75 330.773438 L 204.421875 341.925781 C 202.894531 343.035156 200.828125 343.039062 199.300781 341.929688 C 197.769531 340.824219 197.136719 338.859375 197.722656 337.070312 L 203.621094 319.082031 L 188.25 307.992188 C 186.71875 306.890625 186.078125 304.925781 186.660156 303.132812 C 187.246094 301.34375 188.914062 300.140625 190.800781 300.140625 C 190.804688 300.140625 190.804688 300.140625 190.808594 300.140625 L 209.777344 300.175781 L 215.613281 282.164062 C 216.191406 280.371094 217.863281 279.15625 219.75 279.15625 C 221.636719 279.15625 223.3125 280.371094 223.886719 282.164062 L 229.722656 300.175781 L 248.691406 300.140625 C 248.695312 300.140625 248.695312 300.140625 248.699219 300.140625 C 250.585938 300.140625 252.253906 301.34375 252.839844 303.132812 C 253.421875 304.925781 252.78125 306.890625 251.25 307.992188 L 235.878906 319.082031 L 241.777344 337.070312 C 242.367188 338.859375 241.730469 340.824219 240.199219 341.929688 C 239.4375 342.484375 238.539062 342.761719 237.640625 342.761719 " fill-opacity="1" fill-rule="evenodd"/><g clip-path="url(#576766ce8c)"><path fill="#02a9df" d="M 291.59375 417.511719 L 5.453125 417.511719 C 3.050781 417.511719 1.105469 415.570312 1.105469 413.171875 L 1.105469 45.925781 C 1.105469 43.527344 3.050781 41.585938 5.453125 41.585938 L 91.960938 41.585938 C 94.363281 41.585938 96.3125 43.527344 96.3125 45.925781 C 96.3125 48.324219 94.363281 50.265625 91.960938 50.265625 L 9.804688 50.265625 L 9.804688 408.832031 L 287.242188 408.832031 L 287.242188 50.265625 L 205.085938 50.265625 C 202.683594 50.265625 200.734375 48.324219 200.734375 45.925781 C 200.734375 43.527344 202.683594 41.585938 205.085938 41.585938 L 291.59375 41.585938 C 293.996094 41.585938 295.945312 43.527344 295.945312 45.925781 L 295.945312 413.171875 C 295.945312 415.570312 293.996094 417.511719 291.59375 417.511719 " fill-opacity="1" fill-rule="evenodd"/></g><path fill="#02a9df" d="M 268.171875 394.152344 L 28.878906 394.152344 C 26.472656 394.152344 24.527344 392.207031 24.527344 389.8125 L 24.527344 69.289062 C 24.527344 66.890625 26.472656 64.949219 28.878906 64.949219 L 91.960938 64.949219 C 94.363281 64.949219 96.3125 66.890625 96.3125 69.289062 C 96.3125 71.683594 94.363281 73.625 91.960938 73.625 L 33.226562 73.625 L 33.226562 385.472656 L 263.820312 385.472656 L 263.820312 73.625 L 205.085938 73.625 C 202.683594 73.625 200.734375 71.683594 200.734375 69.289062 C 200.734375 66.890625 202.683594 64.949219 205.085938 64.949219 L 268.171875 64.949219 C 270.574219 64.949219 272.519531 66.890625 272.519531 69.289062 L 272.519531 389.8125 C 272.519531 392.207031 270.574219 394.152344 268.171875 394.152344 " fill-opacity="1" fill-rule="evenodd"/></g></g></g><g mask="url(#542b097e4f)"><g transform="matrix(1, 0, 0, 1, 0, -0.000000000000014788)"><g clip-path="url(#9e24c282ad)"><g clip-path="url(#5508bb71cd)"><path fill="#709198" d="M 288.550781 0 C 129.1875 0 0 129.1875 0 288.550781 C 0 447.910156 129.1875 577.101562 288.550781 577.101562 C 447.910156 577.101562 577.101562 447.910156 577.101562 288.550781 C 577.101562 129.1875 447.910156 0 288.550781 0 " fill-opacity="1" fill-rule="nonzero"/></g></g></g></g></svg>