<svg xmlns="http://www.w3.org/2000/svg" xmlns:xlink="http://www.w3.org/1999/xlink" width="768" zoomAndPan="magnify" viewBox="0 0 576 576" height="768" preserveAspectRatio="xMidYMid meet" version="1.0"><defs><filter x="0%" y="0%" width="100%" height="100%" id="a728d6d65b"><feColorMatrix values="0 0 0 0 1 0 0 0 0 1 0 0 0 0 1 0 0 0 1 0" color-interpolation-filters="sRGB"/></filter><mask id="e5f3e69bbc"><g filter="url(#a728d6d65b)"><rect x="-57.6" width="691.2" fill="#000000" y="-57.6" height="691.2" fill-opacity="0.1294"/></g></mask><clipPath id="86b1ed53a8"><path d="M 0 0 L 576 0 L 576 576 L 0 576 Z M 0 0 " clip-rule="nonzero"/></clipPath><clipPath id="101841f05b"><rect x="0" width="576" y="0" height="576"/></clipPath><mask id="762fb7d79f"><g filter="url(#a728d6d65b)"><rect x="-57.6" width="691.2" fill="#000000" y="-57.6" height="691.2" fill-opacity="0.8"/></g></mask><clipPath id="68a6071068"><path d="M 224 0.554688 L 373.761719 0.554688 L 373.761719 152 L 224 152 Z M 224 0.554688 " clip-rule="nonzero"/></clipPath><clipPath id="09ee42dd72"><path d="M 74 226 L 287 226 L 287 376.921875 L 74 376.921875 Z M 74 226 " clip-rule="nonzero"/></clipPath><clipPath id="95e6fdf80f"><rect x="0" width="374" y="0" height="378"/></clipPath></defs><g mask="url(#e5f3e69bbc)"><g transform="matrix(1, 0, 0, 1, 0, -0.000000000000014788)"><g clip-path="url(#101841f05b)"><g clip-path="url(#86b1ed53a8)"><path fill="#709198" d="M 288.550781 0 C 129.1875 0 0 129.1875 0 288.550781 C 0 447.910156 129.1875 577.101562 288.550781 577.101562 C 447.910156 577.101562 577.101562 447.910156 577.101562 288.550781 C 577.101562 129.1875 447.910156 0 288.550781 0 " fill-opacity="1" fill-rule="nonzero"/></g></g></g></g><g mask="url(#762fb7d79f)"><g transform="matrix(1, 0, 0, 1, 100, 100)"><g clip-path="url(#95e6fdf80f)"><path fill="#02a9df" d="M 37.429688 188.738281 C 37.429688 167.800781 41.613281 147.542969 49.863281 128.519531 L 38.445312 123.496094 C 29.507812 144.113281 24.972656 166.0625 24.972656 188.738281 C 24.972656 231.179688 41.074219 271.375 70.3125 301.921875 L 79.277344 293.214844 C 52.292969 265.019531 37.429688 227.914062 37.429688 188.738281 " fill-opacity="1" fill-rule="nonzero"/><g clip-path="url(#68a6071068)"><path fill="#02a9df" d="M 347.199219 115.5 L 340.769531 109.027344 L 331.964844 117.898438 L 338.390625 124.375 C 329.164062 131.980469 317.734375 136.984375 305.226562 138.238281 L 305.226562 126.007812 L 292.773438 126.007812 L 292.773438 138.238281 C 280.265625 136.984375 268.835938 131.980469 259.609375 124.375 L 266.035156 117.898438 L 257.230469 109.027344 L 250.800781 115.5 C 243.246094 106.207031 238.28125 94.695312 237.035156 82.097656 L 249.175781 82.097656 L 249.175781 69.554688 L 237.035156 69.554688 C 238.28125 56.957031 243.246094 45.445312 250.800781 36.152344 L 257.230469 42.625 L 266.035156 33.753906 L 259.609375 27.28125 C 268.835938 19.671875 280.265625 14.667969 292.773438 13.414062 L 292.773438 25.644531 L 305.226562 25.644531 L 305.226562 13.414062 C 317.734375 14.667969 329.164062 19.671875 338.390625 27.28125 L 331.964844 33.753906 L 340.769531 42.625 L 347.199219 36.152344 C 354.753906 45.445312 359.71875 56.957031 360.964844 69.554688 L 348.824219 69.554688 L 348.824219 82.097656 L 360.964844 82.097656 C 359.71875 94.695312 354.753906 106.207031 347.199219 115.5 Z M 299 0.554688 C 257.792969 0.554688 224.265625 34.320312 224.265625 75.828125 C 224.265625 117.332031 257.792969 151.101562 299 151.101562 C 340.207031 151.101562 373.734375 117.332031 373.734375 75.828125 C 373.734375 34.320312 340.207031 0.554688 299 0.554688 " fill-opacity="1" fill-rule="nonzero"/></g><path fill="#02a9df" d="M 292.773438 73.230469 L 275.914062 90.210938 L 284.71875 99.082031 L 303.402344 80.261719 C 304.570312 79.085938 305.226562 77.488281 305.226562 75.828125 L 305.226562 38.191406 L 292.773438 38.191406 L 292.773438 73.230469 " fill-opacity="1" fill-rule="nonzero"/><path fill="#02a9df" d="M 17.476562 95.335938 L 14.015625 63.972656 C 13.820312 62.175781 14.367188 60.445312 15.5625 59.097656 C 16.761719 57.75 18.410156 57.007812 20.203125 57.007812 L 37.429688 57.007812 C 39.496094 57.007812 41.425781 55.976562 42.585938 54.25 C 43.746094 52.527344 43.980469 50.335938 43.210938 48.40625 L 37.585938 34.246094 C 36.808594 32.28125 37.035156 30.152344 38.214844 28.402344 C 39.390625 26.648438 41.269531 25.644531 43.371094 25.644531 L 46.355469 25.644531 L 63.226562 53.964844 C 64.351562 55.851562 66.382812 57.007812 68.566406 57.007812 L 87.25 57.007812 L 87.25 88.371094 L 68.566406 88.371094 C 66.917969 88.371094 65.332031 89.035156 64.164062 90.210938 L 55.359375 99.082031 C 54.179688 100.265625 52.613281 100.917969 50.953125 100.917969 L 23.664062 100.917969 C 20.488281 100.917969 17.828125 98.519531 17.476562 95.335938 Z M 99.707031 50.734375 L 124.617188 50.734375 L 124.617188 100.917969 L 99.707031 100.917969 Z M 64.164062 107.949219 L 71.148438 100.917969 L 87.25 100.917969 L 87.25 107.191406 C 87.25 110.65625 90.039062 113.464844 93.480469 113.464844 L 130.847656 113.464844 C 134.285156 113.464844 137.074219 110.65625 137.074219 107.191406 L 137.074219 44.460938 C 137.074219 41 134.285156 38.191406 130.847656 38.191406 L 93.480469 38.191406 C 90.039062 38.191406 87.25 41 87.25 44.460938 L 72.09375 44.460938 L 55.222656 16.144531 C 54.097656 14.257812 52.070312 13.097656 49.882812 13.097656 L 43.371094 13.097656 C 37.164062 13.097656 31.378906 16.1875 27.898438 21.367188 C 24.417969 26.542969 23.71875 33.101562 26.023438 38.90625 L 28.230469 44.460938 L 20.203125 44.460938 C 14.898438 44.460938 9.824219 46.746094 6.28125 50.730469 C 2.742188 54.714844 1.050781 60.046875 1.636719 65.359375 L 5.097656 96.722656 C 6.148438 106.265625 14.132812 113.464844 23.664062 113.464844 L 50.953125 113.464844 C 55.941406 113.464844 60.632812 111.507812 64.164062 107.949219 " fill-opacity="1" fill-rule="nonzero"/><g clip-path="url(#09ee42dd72)"><path fill="#02a9df" d="M 161.984375 276.558594 C 158.546875 276.558594 155.757812 279.367188 155.757812 282.828125 C 155.757812 299.285156 168.402344 312.820312 184.417969 314.097656 L 172.691406 325.90625 L 113.511719 307.566406 C 108.546875 300.277344 105.933594 291.792969 105.933594 282.828125 C 105.933594 258.617188 125.492188 238.921875 149.53125 238.921875 C 171.453125 238.921875 189.640625 255.304688 192.671875 276.558594 Z M 209.984375 278.394531 C 208.816406 277.21875 207.234375 276.558594 205.582031 276.558594 L 205.226562 276.558594 C 202.117188 248.371094 178.332031 226.375 149.53125 226.375 C 118.625 226.375 93.480469 251.703125 93.480469 282.828125 C 93.480469 290.078125 94.882812 297.246094 97.546875 303.910156 C 91.839844 304.285156 86.425781 307.269531 83.144531 312.222656 L 75.84375 323.261719 C 74.808594 324.824219 74.523438 326.773438 75.066406 328.570312 C 75.609375 330.371094 76.925781 331.824219 78.652344 332.539062 L 184.527344 376.449219 C 185.289062 376.765625 186.089844 376.921875 186.898438 376.921875 C 187.851562 376.921875 188.808594 376.703125 189.683594 376.261719 L 225.738281 358.105469 L 286.542969 358.105469 L 286.542969 345.558594 L 224.265625 345.558594 C 223.296875 345.558594 222.34375 345.785156 221.480469 346.21875 L 186.648438 363.761719 L 90.421875 323.851562 L 93.511719 319.183594 C 95.027344 316.890625 97.910156 315.855469 100.523438 316.664062 L 172.609375 339.007812 C 174.816406 339.691406 177.214844 339.09375 178.84375 337.449219 L 203.757812 312.355469 C 205.539062 310.5625 206.070312 307.867188 205.105469 305.519531 C 204.144531 303.175781 201.871094 301.648438 199.351562 301.648438 L 186.898438 301.648438 C 178.777344 301.648438 171.851562 296.40625 169.28125 289.101562 L 203.003906 289.101562 L 219.863281 306.082031 C 221.03125 307.257812 222.613281 307.921875 224.265625 307.921875 L 286.542969 307.921875 L 286.542969 295.375 L 226.84375 295.375 L 209.984375 278.394531 " fill-opacity="1" fill-rule="nonzero"/></g><path fill="#02a9df" d="M 155.339844 156.429688 L 159.511719 146.292969 C 160.273438 144.4375 160.109375 142.324219 159.070312 140.613281 L 154.886719 133.738281 L 157.203125 131.402344 L 164.03125 135.617188 C 165.730469 136.664062 167.824219 136.832031 169.667969 136.0625 L 179.734375 131.863281 C 181.574219 131.09375 182.941406 129.484375 183.40625 127.527344 L 185.261719 119.738281 L 188.535156 119.738281 L 190.386719 127.527344 C 190.855469 129.484375 192.21875 131.09375 194.0625 131.863281 L 204.128906 136.0625 C 205.96875 136.832031 208.066406 136.664062 209.765625 135.617188 L 216.59375 131.402344 L 218.910156 133.738281 L 214.726562 140.613281 C 213.683594 142.324219 213.519531 144.4375 214.285156 146.292969 L 218.453125 156.429688 C 219.21875 158.285156 220.816406 159.660156 222.757812 160.128906 L 230.492188 162 L 230.492188 165.292969 L 222.757812 167.164062 C 220.816406 167.632812 219.21875 169.007812 218.453125 170.863281 L 214.285156 181 C 213.519531 182.855469 213.683594 184.96875 214.726562 186.679688 L 218.910156 193.554688 L 216.59375 195.890625 L 209.765625 191.675781 C 208.066406 190.628906 205.96875 190.460938 204.128906 191.230469 L 194.0625 195.429688 C 192.21875 196.199219 190.855469 197.808594 190.386719 199.765625 L 188.535156 207.554688 L 185.261719 207.554688 L 183.40625 199.765625 C 182.941406 197.808594 181.574219 196.199219 179.734375 195.429688 L 169.667969 191.230469 C 167.824219 190.460938 165.730469 190.628906 164.03125 191.675781 L 157.203125 195.890625 L 154.886719 193.554688 L 159.070312 186.679688 C 160.109375 184.96875 160.273438 182.855469 159.511719 181 L 155.339844 170.863281 C 154.578125 169.007812 152.980469 167.632812 151.039062 167.164062 L 143.300781 165.292969 L 143.300781 162 L 151.039062 160.128906 C 152.980469 159.660156 154.578125 158.285156 155.339844 156.429688 Z M 146.789062 144.441406 L 145.046875 148.675781 L 135.625 150.949219 C 132.820312 151.628906 130.847656 154.152344 130.847656 157.050781 L 130.847656 170.242188 C 130.847656 173.140625 132.820312 175.664062 135.625 176.34375 L 145.046875 178.617188 L 146.789062 182.851562 L 141.699219 191.21875 C 140.195312 193.691406 140.570312 196.878906 142.605469 198.929688 L 151.867188 208.257812 C 153.902344 210.304688 157.070312 210.683594 159.523438 209.171875 L 167.832031 204.042969 L 172.035156 205.796875 L 174.292969 215.289062 C 174.964844 218.113281 177.46875 220.101562 180.351562 220.101562 L 193.445312 220.101562 C 196.324219 220.101562 198.832031 218.113281 199.503906 215.289062 L 201.761719 205.796875 L 205.964844 204.042969 L 214.273438 209.171875 C 216.726562 210.6875 219.890625 210.304688 221.929688 208.257812 L 231.1875 198.929688 C 233.222656 196.878906 233.601562 193.691406 232.09375 191.21875 L 227.003906 182.851562 L 228.746094 178.617188 L 238.171875 176.34375 C 240.976562 175.664062 242.949219 173.140625 242.949219 170.242188 L 242.949219 157.050781 C 242.949219 154.152344 240.976562 151.628906 238.171875 150.949219 L 228.746094 148.675781 L 227.003906 144.441406 L 232.09375 136.074219 C 233.601562 133.601562 233.226562 130.414062 231.1875 128.363281 L 221.929688 119.035156 C 219.890625 116.984375 216.726562 116.605469 214.273438 118.121094 L 205.964844 123.25 L 201.761719 121.496094 L 199.503906 112.003906 C 198.832031 109.179688 196.324219 107.191406 193.445312 107.191406 L 180.351562 107.191406 C 177.46875 107.191406 174.964844 109.179688 174.292969 112.003906 L 172.035156 121.496094 L 167.832031 123.25 L 159.523438 118.121094 C 157.070312 116.605469 153.902344 116.984375 151.867188 119.035156 L 142.605469 128.363281 C 140.570312 130.414062 140.195312 133.601562 141.699219 136.074219 L 146.789062 144.441406 " fill-opacity="1" fill-rule="nonzero"/><path fill="#02a9df" d="M 186.898438 157.375 C 190.332031 157.375 193.125 160.1875 193.125 163.644531 C 193.125 167.105469 190.332031 169.917969 186.898438 169.917969 C 183.464844 169.917969 180.667969 167.105469 180.667969 163.644531 C 180.667969 160.1875 183.464844 157.375 186.898438 157.375 Z M 186.898438 182.464844 C 197.199219 182.464844 205.582031 174.023438 205.582031 163.644531 C 205.582031 153.269531 197.199219 144.828125 186.898438 144.828125 C 176.59375 144.828125 168.214844 153.269531 168.214844 163.644531 C 168.214844 174.023438 176.59375 182.464844 186.898438 182.464844 " fill-opacity="1" fill-rule="nonzero"/><path fill="#02a9df" d="M 333.378906 158.621094 C 335.359375 168.46875 336.367188 178.597656 336.367188 188.738281 C 336.367188 226.839844 322.203125 263.195312 296.492188 291.109375 L 305.621094 299.640625 C 333.480469 269.402344 348.824219 230.015625 348.824219 188.738281 C 348.824219 177.761719 347.734375 166.792969 345.582031 156.125 L 333.378906 158.621094 " fill-opacity="1" fill-rule="nonzero"/><path fill="#02a9df" d="M 186.898438 38.191406 C 196.964844 38.191406 207.023438 39.203125 216.800781 41.199219 L 219.273438 28.90625 C 208.6875 26.742188 197.792969 25.644531 186.898438 25.644531 C 173.757812 25.644531 160.683594 27.234375 148.039062 30.375 L 151.019531 42.554688 C 162.6875 39.65625 174.761719 38.191406 186.898438 38.191406 " fill-opacity="1" fill-rule="nonzero"/><path fill="#02a9df" d="M 75.730469 119.308594 C 62.898438 140.113281 56.113281 164.125 56.113281 188.738281 C 56.113281 213.351562 62.898438 237.359375 75.730469 258.167969 L 86.3125 251.546875 C 74.703125 232.730469 68.566406 211.007812 68.566406 188.738281 C 68.566406 166.46875 74.703125 144.746094 86.3125 125.925781 L 75.730469 119.308594 " fill-opacity="1" fill-rule="nonzero"/><path fill="#02a9df" d="M 278.449219 282.8125 C 303.75 257.828125 317.683594 224.421875 317.683594 188.738281 C 317.683594 179.875 316.800781 171.007812 315.066406 162.398438 L 302.863281 164.894531 C 304.429688 172.6875 305.226562 180.710938 305.226562 188.738281 C 305.226562 221.019531 292.621094 251.25 269.726562 273.851562 L 278.449219 282.8125 " fill-opacity="1" fill-rule="nonzero"/><path fill="#02a9df" d="M 186.898438 69.554688 C 194.867188 69.554688 202.832031 70.355469 210.570312 71.9375 L 213.050781 59.640625 C 204.5 57.894531 195.699219 57.007812 186.898438 57.007812 C 173.515625 57.007812 160.316406 59.039062 147.664062 63.039062 L 151.398438 75.007812 C 162.835938 71.386719 174.78125 69.554688 186.898438 69.554688 " fill-opacity="1" fill-rule="nonzero"/><path fill="#02a9df" d="M 118.390625 282.828125 C 118.390625 290.476562 121.15625 297.847656 126.175781 303.578125 L 135.515625 295.273438 C 132.503906 291.839844 130.847656 287.421875 130.847656 282.828125 C 130.847656 272.453125 139.226562 264.011719 149.53125 264.011719 C 152.816406 264.011719 156.042969 264.882812 158.867188 266.527344 L 165.105469 255.664062 C 160.390625 252.917969 155.003906 251.464844 149.53125 251.464844 C 132.359375 251.464844 118.390625 265.535156 118.390625 282.828125 " fill-opacity="1" fill-rule="nonzero"/></g></g></g></svg>