<svg xmlns="http://www.w3.org/2000/svg" xmlns:xlink="http://www.w3.org/1999/xlink" width="768" zoomAndPan="magnify" viewBox="0 0 576 576" height="768" preserveAspectRatio="xMidYMid meet" version="1.0"><defs><filter x="0%" y="0%" width="100%" height="100%" id="50e1ef4b00"><feColorMatrix values="0 0 0 0 1 0 0 0 0 1 0 0 0 0 1 0 0 0 1 0" color-interpolation-filters="sRGB"/></filter><mask id="cf37b9fb29"><g filter="url(#50e1ef4b00)"><rect x="-57.6" width="691.2" fill="#000000" y="-57.6" height="691.2" fill-opacity="0.149"/></g></mask><clipPath id="82e1885c9f"><path d="M 0.5 0.542969 L 356.144531 0.542969 L 356.144531 356.1875 L 0.5 356.1875 Z M 0.5 0.542969 " clip-rule="nonzero"/></clipPath><clipPath id="a43ccf09d0"><rect x="0" width="357" y="0" height="357"/></clipPath><mask id="15c1d3b9ac"><g filter="url(#50e1ef4b00)"><rect x="-57.6" width="691.2" fill="#000000" y="-57.6" height="691.2" fill-opacity="0.8"/></g></mask><clipPath id="f64cbff416"><path d="M 0.816406 0.746094 L 77.71875 0.746094 L 77.71875 69.867188 L 0.816406 69.867188 Z M 0.816406 0.746094 " clip-rule="nonzero"/></clipPath><clipPath id="6e8423ff76"><rect x="0" width="78" y="0" height="71"/></clipPath><mask id="9f3fbd8506"><g filter="url(#50e1ef4b00)"><rect x="-57.6" width="691.2" fill="#000000" y="-57.6" height="691.2" fill-opacity="0.8"/></g></mask><clipPath id="084001cc24"><path d="M 26 0.597656 L 45 0.597656 L 45 19 L 26 19 Z M 26 0.597656 " clip-rule="nonzero"/></clipPath><clipPath id="766580c554"><path d="M 51 37 L 77.742188 37 L 77.742188 47 L 51 47 Z M 51 37 " clip-rule="nonzero"/></clipPath><clipPath id="598ae32fd3"><path d="M 0.816406 67 L 27 67 L 27 76.410156 L 0.816406 76.410156 Z M 0.816406 67 " clip-rule="nonzero"/></clipPath><clipPath id="f7597e0326"><rect x="0" width="78" y="0" height="77"/></clipPath><mask id="de479c826d"><g filter="url(#50e1ef4b00)"><rect x="-57.6" width="691.2" fill="#000000" y="-57.6" height="691.2" fill-opacity="0.8"/></g></mask><clipPath id="a8e57c0341"><path d="M 25 17 L 61 17 L 61 54.367188 L 25 54.367188 Z M 25 17 " clip-rule="nonzero"/></clipPath><clipPath id="62a4c003cc"><path d="M 0.457031 0.160156 L 28 0.160156 L 28 37 L 0.457031 37 Z M 0.457031 0.160156 " clip-rule="nonzero"/></clipPath><clipPath id="08a07dfe83"><path d="M 58 0.160156 L 85.1875 0.160156 L 85.1875 37 L 58 37 Z M 58 0.160156 " clip-rule="nonzero"/></clipPath><clipPath id="2bb5210c51"><path d="M 32 0.160156 L 54 0.160156 L 54 10 L 32 10 Z M 32 0.160156 " clip-rule="nonzero"/></clipPath><clipPath id="f873470ba3"><rect x="0" width="86" y="0" height="55"/></clipPath><mask id="5eaa276beb"><g filter="url(#50e1ef4b00)"><rect x="-57.6" width="691.2" fill="#000000" y="-57.6" height="691.2" fill-opacity="0.8"/></g></mask><clipPath id="cf752e6002"><path d="M 0.242188 0.746094 L 69.367188 0.746094 L 69.367188 69.867188 L 0.242188 69.867188 Z M 0.242188 0.746094 " clip-rule="nonzero"/></clipPath><clipPath id="b6b250c550"><rect x="0" width="70" y="0" height="71"/></clipPath><mask id="52d64bcce1"><g filter="url(#50e1ef4b00)"><rect x="-57.6" width="691.2" fill="#000000" y="-57.6" height="691.2" fill-opacity="0.6471"/></g></mask><clipPath id="87e89b84dc"><path d="M 29 13 L 352 13 L 352 298 L 29 298 Z M 29 13 " clip-rule="nonzero"/></clipPath><clipPath id="153a9950f8"><path d="M 316.511719 348.285156 L -31.496094 139.53125 L 51.664062 0.902344 L 399.667969 209.65625 Z M 316.511719 348.285156 " clip-rule="nonzero"/></clipPath><clipPath id="9c37d0d36a"><path d="M 316.511719 348.285156 L -31.496094 139.53125 L 51.664062 0.902344 L 399.667969 209.65625 Z M 316.511719 348.285156 " clip-rule="nonzero"/></clipPath><clipPath id="38ae706984"><rect x="0" width="400" y="0" height="349"/></clipPath><mask id="4219ff57c9"><g filter="url(#50e1ef4b00)"><rect x="-57.6" width="691.2" fill="#000000" y="-57.6" height="691.2" fill-opacity="0.6471"/></g></mask><clipPath id="66bddc2de4"><path d="M 48 51 L 373 51 L 373 335 L 48 335 Z M 48 51 " clip-rule="nonzero"/></clipPath><clipPath id="c3b2468b7a"><path d="M 84.015625 0.00390625 L 432.480469 207.984375 L 349.632812 346.796875 L 1.164062 138.816406 Z M 84.015625 0.00390625 " clip-rule="nonzero"/></clipPath><clipPath id="1a9adecd35"><path d="M 84.015625 0.00390625 L 432.480469 207.984375 L 349.632812 346.796875 L 1.164062 138.816406 Z M 84.015625 0.00390625 " clip-rule="nonzero"/></clipPath><clipPath id="52f0fe93a8"><rect x="0" width="401" y="0" height="348"/></clipPath></defs><g mask="url(#cf37b9fb29)"><g transform="matrix(1, 0, 0, 1, 111, 113)"><g clip-path="url(#a43ccf09d0)"><g clip-path="url(#82e1885c9f)"><path fill="#709198" d="M 178.324219 0.542969 C 80.113281 0.542969 0.5 80.15625 0.5 178.367188 C 0.5 276.574219 80.113281 356.1875 178.324219 356.1875 C 276.53125 356.1875 356.144531 276.574219 356.144531 178.367188 C 356.144531 80.15625 276.53125 0.542969 178.324219 0.542969 " fill-opacity="1" fill-rule="nonzero"/></g></g></g></g><path stroke-linecap="butt" transform="matrix(0.000000000000000409, 6.685347, -6.689276, 0.00000000000000041, 289.427215, 113.55025)" fill="none" stroke-linejoin="miter" d="M 0.0000793947 0.000214357 L 53.200618 0.000214357 " stroke="#e6f6fc" stroke-width="1" stroke-opacity="1" stroke-miterlimit="4"/><path stroke-linecap="butt" transform="matrix(6.685347, -0.000000000000000893, 0.000000000000000893, 6.689276, 111.499404, 291.478133)" fill="none" stroke-linejoin="miter" d="M 0.0000891271 -0.000234847 L 53.200627 -0.000234847 " stroke="#e6f6fc" stroke-width="1" stroke-opacity="1" stroke-miterlimit="4"/><g mask="url(#15c1d3b9ac)"><g transform="matrix(1, 0, 0, 1, 325, 186)"><g clip-path="url(#6e8423ff76)"><g clip-path="url(#f64cbff416)"><path fill="#02a9df" d="M 37.238281 39.433594 L 33.917969 39.433594 C 33.226562 39.433594 32.546875 39.363281 31.894531 39.226562 C 32.164062 39.769531 32.3125 40.382812 32.3125 41.03125 C 32.3125 41.238281 32.351562 41.433594 32.417969 41.609375 L 32.441406 41.675781 C 32.503906 41.816406 32.585938 41.945312 32.683594 42.066406 L 32.78125 42.160156 C 32.9375 42.308594 33.113281 42.429688 33.308594 42.511719 C 33.492188 42.585938 33.699219 42.628906 33.917969 42.628906 L 37.234375 42.628906 C 37.460938 42.628906 37.671875 42.585938 37.851562 42.511719 C 38.039062 42.4375 38.214844 42.320312 38.367188 42.167969 L 38.378906 42.15625 C 38.527344 42.007812 38.648438 41.832031 38.722656 41.648438 C 38.800781 41.464844 38.839844 41.257812 38.839844 41.03125 C 38.839844 40.574219 38.667969 40.171875 38.382812 39.890625 C 38.101562 39.605469 37.699219 39.433594 37.238281 39.433594 Z M 33.917969 36.972656 L 37.238281 36.972656 C 38.378906 36.972656 39.390625 37.421875 40.125 38.152344 L 40.132812 38.15625 C 40.867188 38.894531 41.316406 39.90625 41.316406 41.03125 C 41.316406 41.574219 41.207031 42.09375 41.007812 42.578125 C 40.796875 43.082031 40.496094 43.527344 40.128906 43.894531 L 40.117188 43.90625 C 39.75 44.273438 39.296875 44.574219 38.792969 44.777344 C 38.308594 44.976562 37.78125 45.089844 37.238281 45.089844 L 33.917969 45.089844 C 33.375 45.089844 32.847656 44.976562 32.363281 44.777344 C 31.859375 44.570312 31.410156 44.265625 31.039062 43.894531 L 30.890625 43.742188 C 30.589844 43.410156 30.339844 43.019531 30.164062 42.597656 L 30.109375 42.484375 C 29.9375 42.03125 29.839844 41.539062 29.839844 41.03125 C 29.839844 40.570312 29.652344 40.15625 29.351562 39.855469 C 29.046875 39.554688 28.628906 39.367188 28.167969 39.367188 C 27.703125 39.367188 27.285156 39.554688 26.984375 39.855469 C 26.683594 40.152344 26.496094 40.570312 26.496094 41.03125 C 26.496094 41.996094 26.679688 42.914062 27.011719 43.746094 C 27.363281 44.613281 27.878906 45.40625 28.523438 46.085938 C 28.558594 46.136719 28.628906 46.203125 28.675781 46.25 C 29.246094 46.816406 29.894531 47.285156 30.601562 47.636719 C 31.277344 47.972656 32.011719 48.210938 32.789062 48.332031 C 33.421875 48.386719 33.921875 48.914062 33.921875 49.558594 L 33.921875 51.546875 C 33.921875 52.007812 34.105469 52.417969 34.402344 52.714844 L 34.410156 52.722656 C 34.707031 53.015625 35.121094 53.199219 35.582031 53.199219 C 36.042969 53.199219 36.460938 53.015625 36.757812 52.714844 L 36.765625 52.714844 C 37.0625 52.417969 37.246094 52.007812 37.246094 51.546875 L 37.246094 49.554688 C 37.25 48.953125 37.695312 48.429688 38.308594 48.339844 C 39.101562 48.226562 39.851562 47.984375 40.546875 47.636719 C 41.261719 47.28125 41.914062 46.8125 42.476562 46.257812 L 42.5 46.230469 C 43.183594 45.546875 43.734375 44.734375 44.109375 43.835938 C 44.46875 42.972656 44.671875 42.023438 44.671875 41.03125 C 44.671875 40.03125 44.46875 39.078125 44.109375 38.214844 C 43.746094 37.347656 43.21875 36.558594 42.566406 35.890625 L 42.453125 35.785156 C 41.773438 35.117188 40.964844 34.574219 40.066406 34.203125 C 39.199219 33.847656 38.246094 33.648438 37.246094 33.648438 L 33.925781 33.648438 C 32.804688 33.648438 31.785156 33.191406 31.046875 32.453125 C 30.671875 32.085938 30.371094 31.636719 30.160156 31.136719 C 29.957031 30.65625 29.84375 30.132812 29.84375 29.59375 C 29.84375 28.515625 30.34375 27.515625 31.078125 26.789062 C 31.847656 26.027344 32.898438 25.535156 33.925781 25.535156 L 37.246094 25.535156 C 37.789062 25.535156 38.3125 25.648438 38.800781 25.84375 C 39.308594 26.054688 39.757812 26.351562 40.125 26.71875 L 40.136719 26.730469 C 40.507812 27.09375 40.808594 27.542969 41.015625 28.046875 C 41.214844 28.527344 41.324219 29.050781 41.324219 29.59375 C 41.324219 30.050781 41.515625 30.46875 41.816406 30.769531 C 42.117188 31.070312 42.539062 31.257812 42.996094 31.257812 C 43.460938 31.257812 43.878906 31.070312 44.179688 30.769531 C 44.484375 30.46875 44.671875 30.050781 44.671875 29.59375 C 44.671875 28.597656 44.46875 27.652344 44.113281 26.792969 C 43.734375 25.890625 43.183594 25.074219 42.5 24.390625 L 42.472656 24.363281 C 41.914062 23.8125 41.261719 23.34375 40.550781 22.984375 C 39.875 22.648438 39.144531 22.410156 38.378906 22.292969 C 37.746094 22.238281 37.25 21.710938 37.25 21.066406 L 37.25 19.074219 C 37.25 18.621094 37.0625 18.203125 36.761719 17.90625 C 36.460938 17.609375 36.042969 17.421875 35.585938 17.421875 C 35.148438 17.421875 34.753906 17.585938 34.457031 17.855469 L 34.410156 17.90625 C 34.109375 18.203125 33.921875 18.617188 33.921875 19.074219 L 33.921875 21.0625 C 33.917969 21.664062 33.472656 22.191406 32.859375 22.277344 C 31.007812 22.542969 29.417969 23.445312 28.289062 24.738281 C 27.164062 26.035156 26.496094 27.730469 26.496094 29.589844 C 26.496094 30.589844 26.695312 31.539062 27.054688 32.40625 C 27.433594 33.304688 27.988281 34.121094 28.675781 34.804688 C 29.367188 35.488281 30.183594 36.042969 31.089844 36.414062 C 31.957031 36.777344 32.914062 36.972656 33.917969 36.972656 Z M 27.390625 36.980469 C 27.230469 36.839844 27.074219 36.695312 26.921875 36.546875 C 26.011719 35.640625 25.277344 34.554688 24.773438 33.347656 C 24.289062 32.1875 24.019531 30.914062 24.019531 29.589844 C 24.019531 27.128906 24.910156 24.871094 26.421875 23.136719 C 27.707031 21.660156 29.4375 20.566406 31.441406 20.058594 L 31.441406 19.074219 C 31.441406 17.9375 31.90625 16.910156 32.652344 16.167969 L 32.738281 16.09375 C 33.480469 15.390625 34.480469 14.960938 35.578125 14.960938 C 36.71875 14.960938 37.753906 15.425781 38.5 16.167969 C 39.25 16.910156 39.714844 17.941406 39.714844 19.074219 L 39.714844 20.0625 C 40.390625 20.238281 41.039062 20.484375 41.652344 20.792969 C 42.601562 21.265625 43.46875 21.890625 44.214844 22.632812 L 44.246094 22.664062 C 45.15625 23.574219 45.886719 24.65625 46.382812 25.847656 C 46.871094 27.007812 47.136719 28.273438 47.136719 29.589844 C 47.136719 30.726562 46.671875 31.761719 45.921875 32.507812 C 45.34375 33.082031 44.589844 33.488281 43.753906 33.644531 L 44.097656 33.960938 C 44.140625 33.996094 44.1875 34.035156 44.230469 34.078125 C 45.140625 34.980469 45.878906 36.066406 46.378906 37.273438 C 46.867188 38.4375 47.136719 39.707031 47.136719 41.03125 C 47.136719 42.351562 46.867188 43.617188 46.378906 44.777344 C 45.878906 45.976562 45.140625 47.0625 44.230469 47.972656 L 44.195312 48.003906 C 43.449219 48.742188 42.589844 49.363281 41.644531 49.832031 C 41.035156 50.136719 40.386719 50.382812 39.710938 50.558594 L 39.710938 51.546875 C 39.710938 52.679688 39.246094 53.707031 38.492188 54.453125 C 37.75 55.199219 36.714844 55.660156 35.570312 55.660156 C 34.4375 55.660156 33.402344 55.199219 32.652344 54.457031 L 32.644531 54.449219 C 31.894531 53.703125 31.433594 52.675781 31.433594 51.546875 L 31.433594 50.558594 C 30.757812 50.382812 30.105469 50.136719 29.488281 49.828125 C 28.523438 49.347656 27.65625 48.722656 26.914062 47.988281 L 26.71875 47.765625 C 25.867188 46.875 25.183594 45.816406 24.714844 44.648438 C 24.261719 43.519531 24.011719 42.296875 24.011719 41.03125 C 24.011719 39.894531 24.476562 38.859375 25.226562 38.113281 C 25.808594 37.542969 26.554688 37.136719 27.390625 36.980469 Z M 39.265625 31.398438 C 38.996094 30.851562 38.84375 30.238281 38.84375 29.589844 C 38.84375 29.363281 38.804688 29.15625 38.726562 28.976562 C 38.652344 28.789062 38.53125 28.613281 38.378906 28.464844 L 38.371094 28.453125 C 38.21875 28.304688 38.042969 28.1875 37.855469 28.109375 C 37.675781 28.035156 37.464844 27.992188 37.238281 27.992188 L 33.921875 27.992188 C 33.554688 27.992188 33.148438 28.203125 32.824219 28.523438 C 32.519531 28.824219 32.3125 29.210938 32.3125 29.589844 C 32.3125 29.808594 32.355469 30.011719 32.433594 30.195312 C 32.515625 30.386719 32.636719 30.5625 32.789062 30.714844 C 33.082031 31.007812 33.480469 31.1875 33.921875 31.1875 L 37.238281 31.1875 C 37.929688 31.1875 38.605469 31.261719 39.265625 31.398438 Z M 70.003906 20.804688 C 70.628906 19.855469 71.578125 19.242188 72.613281 19.023438 C 73.644531 18.804688 74.765625 18.980469 75.726562 19.597656 C 76.683594 20.214844 77.300781 21.164062 77.519531 22.191406 C 77.738281 23.21875 77.5625 24.328125 76.941406 25.285156 L 69.640625 36.429688 C 69.019531 37.382812 68.066406 37.992188 67.035156 38.210938 C 66 38.429688 64.882812 38.253906 63.921875 37.636719 L 52.710938 30.378906 C 51.753906 29.761719 51.136719 28.816406 50.917969 27.789062 C 50.699219 26.761719 50.875 25.648438 51.496094 24.695312 C 52.117188 23.742188 53.070312 23.128906 54.105469 22.910156 C 55.136719 22.695312 56.257812 22.867188 57.214844 23.484375 L 60.097656 25.351562 C 59.617188 24.183594 59.054688 23.054688 58.417969 21.976562 C 57.183594 19.894531 55.667969 17.996094 53.921875 16.324219 C 51.5 14.011719 48.636719 12.152344 45.46875 10.886719 C 42.421875 9.667969 39.082031 8.996094 35.578125 8.996094 C 31.984375 8.996094 28.566406 9.707031 25.453125 10.988281 C 22.222656 12.316406 19.308594 14.273438 16.863281 16.703125 C 14.417969 19.132812 12.449219 22.03125 11.113281 25.242188 C 9.824219 28.339844 9.113281 31.738281 9.113281 35.3125 C 9.113281 38.886719 9.824219 42.285156 11.113281 45.378906 C 12.449219 48.589844 14.417969 51.488281 16.863281 53.917969 C 19.304688 56.347656 22.222656 58.304688 25.449219 59.636719 C 28.5625 60.917969 31.984375 61.625 35.578125 61.625 C 38.546875 61.625 41.390625 61.144531 44.03125 60.265625 C 46.785156 59.347656 49.328125 57.996094 51.582031 56.296875 C 53.871094 54.566406 55.875 52.46875 57.496094 50.101562 C 59.085938 47.769531 60.316406 45.167969 61.09375 42.378906 C 61.398438 41.285156 62.121094 40.414062 63.039062 39.898438 C 63.960938 39.378906 65.078125 39.207031 66.179688 39.507812 C 67.28125 39.8125 68.152344 40.527344 68.675781 41.441406 C 69.199219 42.359375 69.367188 43.472656 69.066406 44.566406 C 68.046875 48.21875 66.429688 51.632812 64.335938 54.699219 C 62.207031 57.808594 59.582031 60.558594 56.570312 62.832031 C 53.59375 65.078125 50.25 66.863281 46.644531 68.066406 C 43.15625 69.234375 39.433594 69.867188 35.574219 69.867188 C 30.875 69.867188 26.386719 68.9375 22.285156 67.246094 C 18.023438 65.492188 14.195312 62.925781 10.996094 59.746094 C 7.792969 56.5625 5.214844 52.753906 3.449219 48.519531 C 1.753906 44.445312 0.816406 39.984375 0.816406 35.308594 C 0.816406 30.636719 1.753906 26.171875 3.453125 22.097656 C 5.21875 17.863281 7.796875 14.054688 11 10.871094 C 14.199219 7.691406 18.027344 5.125 22.289062 3.371094 C 26.390625 1.683594 30.878906 0.75 35.578125 0.75 C 40.152344 0.75 44.53125 1.636719 48.542969 3.242188 C 52.703125 4.910156 56.472656 7.359375 59.65625 10.398438 C 61.878906 12.519531 63.816406 14.9375 65.410156 17.582031 C 66.535156 19.445312 67.484375 21.425781 68.242188 23.496094 Z M 73.125 21.425781 C 72.707031 21.511719 72.324219 21.757812 72.074219 22.140625 L 68.894531 26.992188 C 68.738281 27.234375 68.492188 27.421875 68.191406 27.503906 C 67.53125 27.683594 66.851562 27.304688 66.671875 26.652344 C 65.894531 23.878906 64.75 21.257812 63.292969 18.839844 C 61.8125 16.382812 60.011719 14.140625 57.945312 12.167969 C 54.988281 9.339844 51.488281 7.066406 47.625 5.519531 C 43.90625 4.03125 39.84375 3.210938 35.578125 3.210938 C 31.195312 3.210938 27.023438 4.074219 23.226562 5.636719 C 19.285156 7.261719 15.730469 9.648438 12.746094 12.613281 C 9.765625 15.578125 7.367188 19.113281 5.734375 23.03125 C 4.160156 26.808594 3.289062 30.957031 3.289062 35.3125 C 3.289062 39.667969 4.160156 43.816406 5.734375 47.59375 C 7.367188 51.511719 9.765625 55.046875 12.746094 58.011719 C 15.730469 60.976562 19.285156 63.363281 23.226562 64.984375 C 27.023438 66.550781 31.199219 67.414062 35.578125 67.414062 C 39.179688 67.414062 42.640625 66.828125 45.863281 65.746094 C 49.214844 64.625 52.324219 62.96875 55.085938 60.886719 C 57.882812 58.773438 60.324219 56.21875 62.300781 53.328125 C 64.242188 50.488281 65.738281 47.316406 66.6875 43.917969 C 66.8125 43.476562 66.742188 43.027344 66.53125 42.660156 C 66.320312 42.289062 65.964844 41.996094 65.523438 41.878906 C 65.082031 41.753906 64.628906 41.824219 64.257812 42.035156 C 63.886719 42.246094 63.59375 42.59375 63.472656 43.035156 C 62.621094 46.082031 61.277344 48.925781 59.535156 51.476562 C 57.761719 54.070312 55.578125 56.359375 53.074219 58.25 C 50.601562 60.113281 47.820312 61.59375 44.816406 62.59375 C 41.910156 63.5625 38.804688 64.089844 35.578125 64.089844 C 31.667969 64.089844 27.929688 63.3125 24.515625 61.90625 C 20.964844 60.445312 17.777344 58.308594 15.113281 55.660156 C 12.453125 53.015625 10.304688 49.84375 8.832031 46.316406 C 7.417969 42.921875 6.640625 39.207031 6.640625 35.316406 C 6.640625 31.425781 7.421875 27.710938 8.832031 24.316406 C 10.304688 20.789062 12.453125 17.617188 15.113281 14.96875 C 17.777344 12.324219 20.964844 10.1875 24.515625 8.726562 C 27.929688 7.316406 31.667969 6.542969 35.578125 6.542969 C 39.394531 6.542969 43.042969 7.277344 46.382812 8.617188 C 49.851562 10 52.984375 12.035156 55.632812 14.5625 C 57.535156 16.382812 59.195312 18.460938 60.542969 20.746094 C 61.871094 22.988281 62.902344 25.417969 63.578125 27.992188 C 63.664062 28.3125 63.617188 28.667969 63.417969 28.96875 C 63.046875 29.535156 62.285156 29.699219 61.710938 29.332031 L 55.871094 25.546875 C 55.484375 25.300781 55.035156 25.230469 54.613281 25.320312 C 54.195312 25.40625 53.8125 25.652344 53.5625 26.035156 C 53.3125 26.417969 53.242188 26.867188 53.332031 27.285156 C 53.421875 27.699219 53.667969 28.082031 54.054688 28.332031 L 65.265625 35.585938 C 65.648438 35.835938 66.101562 35.90625 66.519531 35.816406 C 66.9375 35.726562 67.320312 35.480469 67.570312 35.097656 L 74.871094 23.953125 C 75.121094 23.570312 75.191406 23.121094 75.101562 22.707031 C 75.011719 22.289062 74.765625 21.90625 74.378906 21.660156 C 73.996094 21.40625 73.542969 21.335938 73.125 21.425781 Z M 73.125 21.425781 " fill-opacity="1" fill-rule="nonzero"/></g></g></g></g><g mask="url(#9f3fbd8506)"><g transform="matrix(1, 0, 0, 1, 325, 326)"><g clip-path="url(#f7597e0326)"><g clip-path="url(#084001cc24)"><path fill="#02a9df" d="M 35.441406 0.597656 C 34.667969 0.609375 33.910156 0.71875 33.164062 0.921875 L 33.164062 1.96875 C 33.164062 2.191406 33.105469 2.394531 32.988281 2.578125 C 32.871094 2.765625 32.714844 2.90625 32.515625 3 C 32.140625 3.167969 31.785156 3.367188 31.445312 3.59375 C 31.039062 3.855469 30.625 3.867188 30.203125 3.625 L 29.265625 3.097656 C 28.089844 4.214844 27.292969 5.554688 26.871094 7.117188 L 28.5 8.027344 C 28.328125 8.875 28.328125 9.71875 28.5 10.566406 L 26.871094 11.476562 C 27.289062 13.042969 28.085938 14.382812 29.261719 15.496094 L 30.203125 14.96875 C 30.625 14.726562 31.039062 14.738281 31.445312 15 C 31.785156 15.226562 32.140625 15.425781 32.515625 15.59375 C 32.714844 15.6875 32.871094 15.828125 32.988281 16.015625 C 33.105469 16.199219 33.164062 16.402344 33.164062 16.625 L 33.164062 17.675781 C 34.757812 18.113281 36.355469 18.113281 37.953125 17.671875 L 37.953125 16.625 C 37.949219 16.402344 38.007812 16.199219 38.125 16.015625 C 38.242188 15.828125 38.398438 15.6875 38.597656 15.59375 C 38.972656 15.425781 39.328125 15.226562 39.667969 15 C 40.074219 14.738281 40.488281 14.726562 40.910156 14.96875 L 41.847656 15.496094 C 43.023438 14.382812 43.820312 13.042969 44.242188 11.476562 L 42.617188 10.566406 C 42.785156 9.71875 42.785156 8.875 42.617188 8.027344 L 44.242188 7.117188 C 43.824219 5.554688 43.027344 4.210938 41.851562 3.097656 L 40.910156 3.625 C 40.488281 3.867188 40.074219 3.855469 39.667969 3.59375 C 39.328125 3.367188 38.972656 3.167969 38.597656 3 C 38.398438 2.90625 38.242188 2.765625 38.125 2.578125 C 38.007812 2.394531 37.949219 2.191406 37.953125 1.96875 L 37.953125 0.917969 C 37.128906 0.695312 36.292969 0.589844 35.441406 0.597656 Z M 38.660156 9.453125 C 38.660156 9.863281 38.582031 10.261719 38.421875 10.640625 C 38.265625 11.023438 38.042969 11.359375 37.75 11.648438 C 37.460938 11.941406 37.125 12.164062 36.742188 12.324219 C 36.363281 12.480469 35.96875 12.558594 35.558594 12.558594 C 35.144531 12.558594 34.75 12.480469 34.371094 12.324219 C 33.988281 12.164062 33.65625 11.941406 33.363281 11.648438 C 33.074219 11.359375 32.847656 11.023438 32.691406 10.640625 C 32.535156 10.261719 32.457031 9.863281 32.457031 9.453125 C 32.457031 9.039062 32.535156 8.644531 32.691406 8.261719 C 32.847656 7.882812 33.074219 7.546875 33.363281 7.253906 C 33.65625 6.964844 33.988281 6.738281 34.371094 6.582031 C 34.75 6.425781 35.144531 6.34375 35.558594 6.34375 C 35.96875 6.34375 36.363281 6.425781 36.742188 6.582031 C 37.125 6.738281 37.460938 6.964844 37.75 7.253906 C 38.042969 7.546875 38.265625 7.882812 38.421875 8.261719 C 38.582031 8.644531 38.660156 9.039062 38.660156 9.453125 Z M 38.660156 9.453125 " fill-opacity="1" fill-rule="nonzero"/></g><path fill="#02a9df" d="M 20.667969 16.132812 C 20.667969 16.5 20.632812 16.863281 20.5625 17.222656 C 20.488281 17.582031 20.382812 17.933594 20.242188 18.273438 C 20.101562 18.613281 19.929688 18.933594 19.726562 19.238281 C 19.523438 19.546875 19.292969 19.828125 19.03125 20.085938 C 18.773438 20.347656 18.492188 20.578125 18.1875 20.78125 C 17.882812 20.988281 17.558594 21.160156 17.222656 21.300781 C 16.882812 21.441406 16.535156 21.546875 16.175781 21.617188 C 15.8125 21.6875 15.453125 21.726562 15.085938 21.726562 C 14.71875 21.726562 14.355469 21.6875 13.996094 21.617188 C 13.636719 21.546875 13.285156 21.441406 12.949219 21.300781 C 12.609375 21.160156 12.289062 20.988281 11.984375 20.78125 C 11.679688 20.578125 11.394531 20.347656 11.136719 20.085938 C 10.878906 19.828125 10.644531 19.546875 10.441406 19.238281 C 10.238281 18.933594 10.066406 18.613281 9.925781 18.273438 C 9.785156 17.933594 9.679688 17.582031 9.609375 17.222656 C 9.535156 16.863281 9.5 16.5 9.5 16.132812 C 9.5 15.765625 9.535156 15.402344 9.609375 15.042969 C 9.679688 14.679688 9.785156 14.332031 9.925781 13.992188 C 10.066406 13.652344 10.238281 13.332031 10.441406 13.027344 C 10.644531 12.71875 10.878906 12.4375 11.136719 12.179688 C 11.394531 11.917969 11.679688 11.6875 11.984375 11.484375 C 12.289062 11.277344 12.609375 11.105469 12.949219 10.964844 C 13.285156 10.824219 13.636719 10.71875 13.996094 10.648438 C 14.355469 10.574219 14.71875 10.539062 15.085938 10.539062 C 15.453125 10.539062 15.8125 10.574219 16.175781 10.648438 C 16.535156 10.71875 16.882812 10.824219 17.222656 10.964844 C 17.558594 11.105469 17.882812 11.277344 18.1875 11.484375 C 18.492188 11.6875 18.773438 11.917969 19.03125 12.179688 C 19.292969 12.4375 19.523438 12.71875 19.726562 13.027344 C 19.929688 13.332031 20.101562 13.652344 20.242188 13.992188 C 20.382812 14.332031 20.488281 14.679688 20.5625 15.042969 C 20.632812 15.402344 20.667969 15.765625 20.667969 16.132812 Z M 20.667969 16.132812 " fill-opacity="1" fill-rule="nonzero"/><path fill="#02a9df" d="M 3.296875 30.425781 L 3.296875 44.09375 C 3.296875 44.261719 3.328125 44.417969 3.390625 44.570312 C 3.453125 44.722656 3.542969 44.859375 3.660156 44.972656 C 3.777344 45.089844 3.910156 45.179688 4.0625 45.242188 C 4.214844 45.304688 4.375 45.339844 4.539062 45.339844 L 6.984375 45.339844 L 6.984375 29.183594 L 8.226562 29.183594 L 8.261719 66.464844 L 14.464844 66.464844 L 15.703125 45.339844 L 21.910156 46.582031 L 21.910156 56.523438 L 28.113281 56.523438 L 28.113281 42.40625 C 28.113281 42.117188 28.0625 41.839844 27.96875 41.566406 C 27.871094 41.296875 27.730469 41.050781 27.550781 40.828125 C 27.367188 40.605469 27.15625 40.421875 26.910156 40.273438 C 26.664062 40.125 26.398438 40.023438 26.117188 39.96875 L 21.910156 39.125 L 21.910156 26.617188 L 36.878906 25.449219 C 37.039062 25.441406 37.1875 25.402344 37.328125 25.332031 C 37.472656 25.265625 37.597656 25.175781 37.703125 25.058594 C 37.8125 24.945312 37.894531 24.8125 37.953125 24.667969 C 38.007812 24.519531 38.039062 24.367188 38.039062 24.210938 L 38.039062 22.96875 C 38.039062 22.804688 38.007812 22.644531 37.945312 22.492188 C 37.882812 22.339844 37.792969 22.207031 37.675781 22.089844 C 37.558594 21.972656 37.425781 21.882812 37.273438 21.820312 C 37.121094 21.757812 36.960938 21.726562 36.796875 21.726562 L 10.742188 21.726562 C 5.945312 21.726562 3.296875 25.621094 3.296875 30.425781 Z M 3.296875 30.425781 " fill-opacity="1" fill-rule="nonzero"/><path fill="#02a9df" d="M 18.1875 57.765625 L 44.242188 57.765625 L 44.242188 66.464844 L 18.1875 66.464844 Z M 18.1875 57.765625 " fill-opacity="1" fill-rule="nonzero"/><path fill="#02a9df" d="M 36.796875 47.824219 L 62.855469 47.824219 L 62.855469 56.523438 L 36.796875 56.523438 Z M 36.796875 47.824219 " fill-opacity="1" fill-rule="nonzero"/><g clip-path="url(#766580c554)"><path fill="#02a9df" d="M 51.6875 37.882812 L 77.742188 37.882812 L 77.742188 46.582031 L 51.6875 46.582031 Z M 51.6875 37.882812 " fill-opacity="1" fill-rule="nonzero"/></g><g clip-path="url(#598ae32fd3)"><path fill="#02a9df" d="M 0.816406 67.707031 L 26.871094 67.707031 L 26.871094 76.40625 L 0.816406 76.40625 Z M 0.816406 67.707031 " fill-opacity="1" fill-rule="nonzero"/></g><path fill="#02a9df" d="M 66.574219 36.636719 L 66.574219 14.269531 L 64.714844 14.269531 L 64.714844 14.550781 L 51.6875 20.480469 L 64.714844 26.414062 L 64.714844 36.636719 Z M 66.574219 36.636719 " fill-opacity="1" fill-rule="nonzero"/></g></g></g><g mask="url(#de479c826d)"><g transform="matrix(1, 0, 0, 1, 181, 338)"><g clip-path="url(#f873470ba3)"><g clip-path="url(#a8e57c0341)"><path fill="#02a9df" d="M 36.777344 37.933594 C 33.179688 35.234375 31.628906 31.710938 32.089844 27.371094 C 32.375 24.71875 33.574219 22.472656 35.546875 20.707031 C 40.128906 16.613281 46.960938 17.007812 51.113281 21.585938 C 54.3125 25.117188 55.671875 32.871094 49.074219 37.980469 C 51.234375 39 53.261719 40.109375 54.941406 41.761719 C 56.636719 43.425781 58.03125 45.28125 58.960938 47.476562 C 59.878906 49.652344 60.414062 51.902344 60.375 54.351562 L 57.765625 54.351562 C 57.695312 54.011719 57.566406 53.652344 57.539062 53.28125 C 57.074219 46.824219 52.113281 41.097656 45.296875 39.941406 C 36.933594 38.523438 28.984375 44.664062 28.242188 53.238281 C 28.210938 53.585938 28.152344 53.9375 28.097656 54.347656 L 25.542969 54.347656 C 25.511719 53.90625 25.429688 53.457031 25.464844 53.019531 C 25.757812 49.25 27.152344 45.933594 29.597656 43.054688 C 31.285156 41.074219 33.332031 39.574219 35.6875 38.492188 C 36.003906 38.34375 36.304688 38.175781 36.777344 37.933594 Z M 42.851562 36.855469 C 46.824219 37.121094 51.046875 33.640625 51.011719 28.804688 C 50.980469 24.167969 47.386719 20.75 42.949219 20.714844 C 38.242188 20.679688 34.792969 24.53125 34.789062 28.820312 C 34.785156 33.5 38.835938 37.058594 42.851562 36.855469 Z M 42.851562 36.855469 " fill-opacity="1" fill-rule="nonzero"/></g><path fill="#02a9df" d="M 28.925781 29.617188 C 29.074219 30.605469 29.195312 31.441406 29.339844 32.414062 C 25.160156 32.28125 21.464844 33.476562 18.386719 36.269531 C 15.289062 39.082031 13.757812 42.664062 13.488281 46.894531 L 10.816406 46.894531 C 10.761719 43.253906 11.851562 40.023438 13.898438 37.109375 C 15.941406 34.195312 18.660156 32.070312 22.152344 30.6875 C 18.4375 27.757812 16.761719 24.09375 17.53125 19.496094 C 18.039062 16.460938 19.644531 14.054688 22.195312 12.390625 C 27.996094 8.597656 34.859375 11.097656 37.578125 15.875 C 37.179688 16.078125 36.78125 16.28125 36.386719 16.488281 C 35.992188 16.695312 35.585938 16.921875 35.128906 17.167969 C 33.757812 15.1875 31.921875 13.90625 29.582031 13.503906 C 27.917969 13.203125 26.324219 13.421875 24.804688 14.167969 C 21.589844 15.734375 19.746094 19.125 20.226562 22.5625 C 20.527344 24.714844 21.554688 26.445312 23.214844 27.800781 C 24.84375 29.132812 26.765625 29.65625 28.925781 29.617188 Z M 28.925781 29.617188 " fill-opacity="1" fill-rule="nonzero"/><path fill="#02a9df" d="M 50.621094 17.132812 L 48.191406 15.851562 C 50.164062 12.6875 52.964844 10.878906 56.613281 10.621094 C 61.40625 10.28125 65.175781 12.269531 67.242188 16.589844 C 69.835938 22.007812 68.355469 26.71875 63.746094 30.636719 C 64.148438 30.855469 64.464844 31.042969 64.796875 31.207031 C 70.425781 33.914062 73.777344 38.339844 74.855469 44.488281 C 74.988281 45.242188 74.949219 46.027344 74.992188 46.894531 L 72.417969 46.894531 C 71.203125 37.683594 65.941406 32.808594 56.476562 32.289062 C 56.605469 31.457031 56.746094 30.578125 56.898438 29.621094 C 59.449219 29.664062 61.632812 28.882812 63.382812 27.074219 C 64.605469 25.808594 65.324219 24.277344 65.589844 22.546875 C 66.089844 19.25 64.121094 15.652344 61.0625 14.199219 C 58.226562 12.839844 53.882812 12.859375 50.621094 17.132812 Z M 50.621094 17.132812 " fill-opacity="1" fill-rule="nonzero"/><g clip-path="url(#62a4c003cc)"><path fill="#02a9df" d="M 3.117188 36.691406 L 1.890625 36.691406 C 0.566406 36.691406 0.453125 36.605469 0.59375 35.308594 C 1.046875 31.097656 2.707031 27.429688 5.722656 24.441406 C 7.316406 22.859375 9.164062 21.589844 11.273438 20.738281 C 11.433594 20.675781 11.582031 20.578125 11.863281 20.429688 C 11.605469 20.15625 11.425781 19.914062 11.199219 19.726562 C 8.152344 17.183594 6.8125 13.898438 7.226562 9.988281 C 7.597656 6.414062 9.421875 3.648438 12.53125 1.820312 C 16.746094 -0.648438 21.773438 -0.0273438 25.363281 3.203125 C 26.097656 3.867188 26.757812 4.605469 27.214844 5.59375 L 24.960938 6.800781 C 24.722656 6.546875 24.480469 6.300781 24.253906 6.042969 C 21.90625 3.371094 18.957031 2.488281 15.601562 3.488281 C 12.203125 4.503906 10.277344 7 9.886719 10.480469 C 9.550781 13.453125 10.773438 15.890625 13.140625 17.726562 C 13.390625 17.925781 13.660156 18.101562 13.941406 18.253906 C 14.425781 18.511719 14.507812 18.886719 14.460938 19.40625 C 14.386719 20.179688 14.371094 20.957031 14.414062 21.730469 C 14.457031 22.480469 14.46875 22.570312 13.722656 22.789062 C 11.640625 23.394531 9.796875 24.429688 8.195312 25.894531 C 5.511719 28.3125 3.882812 31.316406 3.386719 34.917969 C 3.320312 35.441406 3.230469 35.964844 3.117188 36.691406 Z M 3.117188 36.691406 " fill-opacity="1" fill-rule="nonzero"/></g><g clip-path="url(#08a07dfe83)"><path fill="#02a9df" d="M 60.828125 6.804688 L 58.644531 5.632812 C 60.339844 1.808594 66.566406 -1.363281 72.308594 1.324219 C 74.722656 2.457031 76.511719 4.21875 77.640625 6.621094 C 78.78125 9.054688 78.949219 11.617188 78.246094 14.191406 C 77.554688 16.722656 76.027344 18.738281 73.902344 20.308594 C 75.328125 21.132812 76.644531 21.765625 77.820312 22.601562 C 81.628906 25.3125 84.050781 28.960938 84.917969 33.585938 C 85.066406 34.386719 85.089844 35.207031 85.152344 36.019531 C 85.183594 36.441406 84.976562 36.691406 84.523438 36.683594 C 84.488281 36.683594 84.453125 36.683594 84.417969 36.683594 C 82.710938 36.820312 82.707031 36.816406 82.460938 35.144531 C 81.785156 30.5625 79.5625 26.949219 75.652344 24.445312 C 74.738281 23.859375 73.6875 23.46875 72.691406 23.015625 C 72.277344 22.824219 71.839844 22.695312 71.382812 22.527344 L 71.382812 18.5625 C 73.886719 17.175781 75.570312 15.074219 75.890625 12.089844 C 76.148438 9.628906 75.394531 7.453125 73.710938 5.632812 C 70.8125 2.5 64.6875 1.664062 60.828125 6.804688 Z M 60.828125 6.804688 " fill-opacity="1" fill-rule="nonzero"/></g><g clip-path="url(#2bb5210c51)"><path fill="#02a9df" d="M 53.316406 8.382812 L 50.90625 9.449219 C 49.449219 5.164062 46.597656 2.765625 41.980469 3.191406 C 38.234375 3.539062 36.066406 5.945312 34.886719 9.441406 L 32.546875 8.4375 C 32.976562 4.988281 36.746094 0.832031 41.84375 0.371094 C 47.632812 -0.152344 52.144531 3.699219 53.316406 8.382812 Z M 53.316406 8.382812 " fill-opacity="1" fill-rule="nonzero"/></g></g></g></g><g mask="url(#5eaa276beb)"><g transform="matrix(1, 0, 0, 1, 183, 186)"><g clip-path="url(#b6b250c550)"><g clip-path="url(#cf752e6002)"><path fill="#02a9df" d="M 64.070312 57.367188 L 59.101562 62.34375 L 55.875 60.039062 L 55.273438 60.347656 C 54.511719 60.734375 53.742188 61.058594 52.992188 61.300781 L 52.347656 61.511719 L 51.695312 65.40625 L 44.839844 65.40625 L 44.839844 59.402344 C 45.925781 59.679688 47.042969 59.832031 48.183594 59.832031 C 55.558594 59.832031 61.5625 53.832031 61.5625 46.457031 C 61.5625 39.078125 55.558594 33.078125 48.183594 33.078125 C 46.308594 33.078125 44.503906 33.464844 42.808594 34.214844 C 42.738281 34.203125 42.679688 34.191406 42.609375 34.191406 L 37.035156 34.191406 L 37.035156 30.847656 C 37.035156 30.832031 37.03125 30.816406 37.03125 30.804688 L 37.265625 30.566406 L 40.492188 32.871094 L 41.09375 32.5625 C 41.855469 32.175781 42.621094 31.851562 43.375 31.609375 L 44.019531 31.398438 L 44.667969 27.503906 L 51.695312 27.503906 L 52.347656 31.398438 L 52.992188 31.609375 C 53.742188 31.851562 54.511719 32.175781 55.273438 32.5625 L 55.875 32.871094 L 59.101562 30.566406 L 64.070312 35.542969 L 61.765625 38.765625 L 62.074219 39.363281 C 62.460938 40.128906 62.785156 40.894531 63.027344 41.648438 L 63.238281 42.292969 L 67.136719 42.941406 L 67.136719 49.96875 L 63.238281 50.617188 L 63.027344 51.261719 C 62.785156 52.015625 62.460938 52.78125 62.074219 53.546875 L 61.765625 54.144531 Z M 2.472656 67.636719 L 2.472656 65.40625 L 35.917969 65.40625 L 35.917969 63.179688 L 2.472656 63.179688 L 2.472656 43.964844 L 16.964844 52.660156 L 16.964844 54.257812 C 16.964844 55.488281 17.96875 56.488281 19.195312 56.488281 L 25.886719 56.488281 C 27.113281 56.488281 28.113281 55.488281 28.113281 54.257812 L 28.113281 52.660156 L 42.609375 43.964844 L 42.609375 63.179688 L 38.148438 63.179688 L 38.148438 65.40625 L 42.609375 65.40625 L 42.609375 67.636719 Z M 25.886719 54.257812 L 19.195312 54.257812 L 19.195312 49.800781 L 25.886719 49.800781 Z M 44.839844 54.699219 C 45.894531 55.128906 47.019531 55.375 48.183594 55.375 C 53.097656 55.375 57.101562 51.371094 57.101562 46.457031 C 57.101562 41.539062 53.097656 37.535156 48.183594 37.535156 C 47.019531 37.535156 45.894531 37.78125 44.839844 38.210938 L 44.839844 36.421875 C 44.839844 36.222656 44.804688 36.035156 44.753906 35.847656 C 45.851562 35.488281 47.003906 35.304688 48.183594 35.304688 C 54.332031 35.304688 59.332031 40.304688 59.332031 46.457031 C 59.332031 52.605469 54.332031 57.605469 48.183594 57.605469 C 47.039062 57.605469 45.917969 57.425781 44.839844 57.082031 Z M 44.839844 40.679688 C 45.851562 40.09375 46.992188 39.765625 48.183594 39.765625 C 51.871094 39.765625 54.871094 42.765625 54.871094 46.457031 C 54.871094 50.144531 51.871094 53.144531 48.183594 53.144531 C 46.992188 53.144531 45.851562 52.816406 44.839844 52.226562 Z M 42.609375 36.421875 L 42.609375 41.363281 L 28.113281 50.0625 L 28.113281 49.800781 C 28.113281 48.570312 27.113281 47.570312 25.886719 47.570312 L 19.195312 47.570312 C 17.96875 47.570312 16.964844 48.570312 16.964844 49.800781 L 16.964844 50.0625 L 2.472656 41.363281 L 2.472656 36.421875 Z M 10.277344 34.191406 L 10.277344 30.847656 C 10.277344 30.234375 10.777344 29.730469 11.390625 29.730469 L 33.6875 29.730469 C 34.304688 29.730469 34.804688 30.234375 34.804688 30.847656 L 34.804688 34.191406 Z M 5.816406 11.894531 L 37.035156 11.894531 L 37.035156 27.660156 L 37.023438 27.65625 L 36.121094 28.558594 C 35.507812 27.910156 34.648438 27.503906 33.6875 27.503906 L 11.390625 27.503906 C 9.546875 27.503906 8.046875 29 8.046875 30.847656 L 8.046875 34.191406 L 5.816406 34.191406 Z M 20.3125 2.976562 L 42.609375 2.976562 L 42.609375 11.894531 L 51.527344 11.894531 L 51.527344 25.273438 L 42.777344 25.273438 L 42.039062 29.714844 C 41.59375 29.878906 41.140625 30.066406 40.695312 30.277344 L 39.265625 29.253906 L 39.265625 20.8125 L 49.296875 20.8125 L 49.296875 18.582031 L 39.265625 18.582031 L 39.265625 16.351562 L 49.296875 16.351562 L 49.296875 14.125 L 39.265625 14.125 L 39.265625 9.664062 L 20.3125 9.664062 Z M 44.839844 4.550781 L 49.949219 9.664062 L 44.839844 9.664062 Z M 69.367188 51.859375 L 69.367188 41.050781 L 64.921875 40.308594 C 64.757812 39.863281 64.570312 39.414062 64.363281 38.964844 L 66.984375 35.296875 L 59.339844 27.65625 L 55.667969 30.277344 C 55.226562 30.066406 54.773438 29.878906 54.328125 29.714844 L 53.757812 26.296875 L 53.757812 10.316406 L 44.183594 0.746094 L 18.082031 0.746094 L 18.082031 9.664062 L 3.585938 9.664062 L 3.585938 34.191406 L 2.472656 34.191406 C 1.246094 34.191406 0.242188 35.191406 0.242188 36.421875 L 0.242188 67.636719 C 0.242188 68.867188 1.246094 69.867188 2.472656 69.867188 L 42.609375 69.867188 C 43.835938 69.867188 44.839844 68.867188 44.839844 67.636719 L 53.585938 67.636719 L 54.328125 63.195312 C 54.773438 63.03125 55.226562 62.84375 55.667969 62.632812 L 59.339844 65.253906 L 66.984375 57.613281 L 64.363281 53.945312 C 64.570312 53.496094 64.757812 53.046875 64.921875 52.601562 L 69.367188 51.859375 " fill-opacity="1" fill-rule="nonzero"/></g><path fill="#02a9df" d="M 47.066406 30.847656 L 49.296875 30.847656 L 49.296875 28.617188 L 47.066406 28.617188 L 47.066406 30.847656 " fill-opacity="1" fill-rule="nonzero"/><path fill="#02a9df" d="M 58.429688 34.632812 L 60.007812 36.207031 L 61.582031 34.632812 L 60.007812 33.054688 L 58.429688 34.632812 " fill-opacity="1" fill-rule="nonzero"/><path fill="#02a9df" d="M 66.019531 45.339844 L 63.792969 45.339844 L 63.792969 47.570312 L 66.019531 47.570312 L 66.019531 45.339844 " fill-opacity="1" fill-rule="nonzero"/><path fill="#02a9df" d="M 58.429688 58.277344 L 60.007812 59.855469 L 61.582031 58.277344 L 60.007812 56.703125 L 58.429688 58.277344 " fill-opacity="1" fill-rule="nonzero"/><path fill="#02a9df" d="M 47.066406 64.292969 L 49.296875 64.292969 L 49.296875 62.0625 L 47.066406 62.0625 L 47.066406 64.292969 " fill-opacity="1" fill-rule="nonzero"/><path fill="#02a9df" d="M 34.804688 14.125 L 8.046875 14.125 L 8.046875 16.351562 L 34.804688 16.351562 L 34.804688 14.125 " fill-opacity="1" fill-rule="nonzero"/><path fill="#02a9df" d="M 10.277344 18.582031 L 8.046875 18.582031 L 8.046875 20.8125 L 10.277344 20.8125 L 10.277344 18.582031 " fill-opacity="1" fill-rule="nonzero"/><path fill="#02a9df" d="M 14.738281 20.8125 L 14.738281 18.582031 L 12.507812 18.582031 L 12.507812 20.8125 L 14.738281 20.8125 " fill-opacity="1" fill-rule="nonzero"/><path fill="#02a9df" d="M 16.964844 20.8125 L 34.804688 20.8125 L 34.804688 18.582031 L 16.964844 18.582031 L 16.964844 20.8125 " fill-opacity="1" fill-rule="nonzero"/><path fill="#02a9df" d="M 34.804688 23.042969 L 8.046875 23.042969 L 8.046875 25.273438 L 34.804688 25.273438 L 34.804688 23.042969 " fill-opacity="1" fill-rule="nonzero"/><path fill="#02a9df" d="M 22.539062 7.433594 L 24.769531 7.433594 L 24.769531 5.203125 L 22.539062 5.203125 L 22.539062 7.433594 " fill-opacity="1" fill-rule="nonzero"/><path fill="#02a9df" d="M 27 7.433594 L 35.917969 7.433594 L 35.917969 5.203125 L 27 5.203125 L 27 7.433594 " fill-opacity="1" fill-rule="nonzero"/><path fill="#02a9df" d="M 40.378906 5.203125 L 38.148438 5.203125 L 38.148438 7.433594 L 40.378906 7.433594 L 40.378906 5.203125 " fill-opacity="1" fill-rule="nonzero"/></g></g></g><g mask="url(#52d64bcce1)"><g transform="matrix(1, 0, 0, 1, 0, 225)"><g clip-path="url(#38ae706984)"><g clip-path="url(#87e89b84dc)"><g clip-path="url(#153a9950f8)"><g clip-path="url(#9c37d0d36a)"><path fill="#709198" d="M 31.589844 34.433594 C 42.457031 36.464844 52.175781 29.742188 61.042969 22.257812 L 61.230469 22.097656 C 63.574219 20.25 65.503906 18.308594 67.746094 16.285156 C 68.863281 15.292969 69.980469 14.25 71.058594 13.191406 L 80.847656 18.605469 C 79.9375 22.355469 79.648438 26.132812 79.984375 29.914062 C 81.058594 40.097656 88.074219 47.183594 98.144531 49.226562 L 95.601562 60.625 C 84.914062 58.394531 75.390625 51.597656 71.140625 41.566406 C 67.589844 53.222656 66.15625 66.902344 66.382812 79.925781 C 66.589844 83.789062 66.703125 87.796875 67.160156 91.488281 L 67.1875 91.742188 C 67.480469 95.449219 68.191406 99.425781 68.742188 103.246094 C 69.523438 107.027344 70.199219 111.015625 71.171875 114.621094 L 72.265625 119.046875 C 74.417969 126.8125 77.34375 135.335938 80.394531 142.757812 L 83.972656 150.875 L 87.890625 158.832031 L 92.148438 166.625 L 96.722656 174.234375 C 101.828125 182.21875 107.953125 190.800781 114.027344 198.027344 C 119.601562 204.757812 126.097656 211.574219 132.367188 217.609375 C 136.574219 221.535156 142.46875 226.644531 146.910156 230.238281 C 151.199219 233.605469 157.964844 238.550781 162.523438 241.605469 C 168.195312 245.410156 176.847656 250.402344 182.878906 253.773438 C 191.121094 258.0625 201.261719 263.128906 209.804688 266.5 C 216.742188 269.382812 224.046875 272.023438 232.128906 274.578125 C 237.441406 276.203125 244.011719 278.070312 249.402344 279.277344 C 254.617188 280.578125 261.339844 281.855469 266.59375 282.695312 L 275.746094 283.988281 C 277.695312 284.214844 285.320312 284.839844 287.398438 285.039062 C 298.300781 285.597656 308.882812 285.460938 319.71875 284.332031 L 325.8125 283.480469 C 333.257812 282.515625 341.273438 280.460938 348.601562 278.34375 L 351.714844 289.597656 C 347.96875 290.574219 343.292969 292.089844 339.476562 292.820312 C 335.371094 293.636719 331.484375 294.589844 327.179688 295.074219 L 321.050781 295.929688 C 318.9375 296.160156 316.941406 296.273438 314.867188 296.449219 C 311.269531 296.816406 306.117188 296.984375 302.417969 297.015625 C 297.015625 297.21875 291.835938 296.832031 286.527344 296.683594 C 284.007812 296.4375 276.496094 295.851562 274.09375 295.546875 C 274.09375 295.546875 265.140625 294.285156 265.140625 294.285156 C 261.832031 293.867188 256.191406 292.640625 252.894531 292.042969 C 249.210938 291.363281 244.433594 290.042969 240.78125 289.195312 C 237.109375 288.335938 232.296875 286.761719 228.664062 285.730469 C 220.265625 283.078125 212.660156 280.328125 205.417969 277.324219 C 196.265625 273.703125 185.960938 268.542969 177.210938 263.980469 C 170.773438 260.382812 162.023438 255.332031 155.992188 251.285156 C 151.175781 248.0625 144.074219 242.859375 139.535156 239.292969 C 134.886719 235.535156 128.675781 230.136719 124.261719 226.015625 C 117.777344 219.777344 110.929688 212.59375 105.257812 205.738281 C 98.695312 197.96875 92.269531 188.9375 86.78125 180.359375 L 81.960938 172.332031 L 77.476562 164.113281 L 73.34375 155.710938 L 69.570312 147.136719 C 66.292969 139.167969 63.265625 130.277344 60.964844 121.972656 L 59.882812 117.605469 C 58.777344 113.472656 58.113281 109.515625 57.273438 105.4375 L 57.214844 105.089844 C 56.621094 100.984375 55.90625 97.046875 55.558594 92.796875 C 55.046875 88.554688 54.941406 84.53125 54.71875 80.390625 L 54.710938 80.054688 C 54.457031 65.824219 56.097656 50.601562 60.117188 37.722656 C 50.78125 44.132812 40.019531 48.210938 29.050781 45.835938 Z M 31.589844 34.433594 " fill-opacity="1" fill-rule="nonzero"/></g></g></g></g></g></g><g mask="url(#4219ff57c9)"><g transform="matrix(1, 0, 0, 1, 175, -0.000000000000014788)"><g clip-path="url(#52f0fe93a8)"><g clip-path="url(#66bddc2de4)"><g clip-path="url(#c3b2468b7a)"><g clip-path="url(#1a9adecd35)"><path fill="#709198" d="M 369.628906 313.21875 C 358.757812 311.214844 349.054688 317.960938 340.203125 325.464844 L 340.015625 325.625 C 337.675781 327.476562 335.75 329.421875 333.515625 331.449219 C 332.398438 332.445312 331.285156 333.488281 330.210938 334.550781 L 320.40625 329.15625 C 321.308594 325.40625 321.589844 321.628906 321.246094 317.851562 C 320.148438 307.664062 313.117188 300.597656 303.039062 298.578125 L 305.558594 287.175781 C 316.253906 289.378906 325.792969 296.15625 330.0625 306.175781 C 333.589844 294.515625 334.992188 280.828125 334.734375 267.808594 C 334.519531 263.945312 334.398438 259.9375 333.933594 256.246094 L 333.90625 255.992188 C 333.605469 252.285156 332.886719 248.3125 332.324219 244.492188 C 331.539062 240.710938 330.851562 236.722656 329.871094 233.121094 L 328.765625 228.699219 C 326.597656 220.9375 323.65625 212.421875 320.585938 205.007812 L 316.988281 196.894531 L 313.050781 188.945312 L 308.777344 181.164062 L 304.1875 173.566406 C 299.0625 165.59375 292.921875 157.023438 286.832031 149.8125 C 281.242188 143.089844 274.730469 136.292969 268.445312 130.269531 C 264.230469 126.351562 258.324219 121.257812 253.878906 117.675781 C 249.578125 114.316406 242.804688 109.382812 238.238281 106.339844 C 232.554688 102.546875 223.894531 97.574219 217.855469 94.21875 C 209.605469 89.945312 199.453125 84.902344 190.902344 81.550781 C 183.957031 78.683594 176.648438 76.058594 168.558594 73.519531 C 163.246094 71.90625 156.667969 70.054688 151.277344 68.859375 C 146.058594 67.574219 139.332031 66.308594 134.078125 65.480469 L 124.921875 64.207031 C 122.972656 63.984375 115.347656 63.378906 113.269531 63.183594 C 102.363281 62.648438 91.78125 62.808594 80.949219 63.960938 L 74.859375 64.828125 C 67.414062 65.808594 59.402344 67.878906 52.078125 70.011719 L 48.941406 58.765625 C 52.683594 57.78125 57.359375 56.253906 61.175781 55.515625 C 65.273438 54.691406 69.160156 53.730469 73.464844 53.234375 L 79.589844 52.363281 C 81.707031 52.132812 83.699219 52.015625 85.777344 51.832031 C 89.371094 51.460938 94.523438 51.277344 98.222656 51.242188 C 103.625 51.023438 108.804688 51.398438 114.113281 51.535156 C 116.632812 51.777344 124.148438 52.347656 126.550781 52.644531 C 126.546875 52.644531 135.503906 53.886719 135.503906 53.886719 C 138.8125 54.296875 144.457031 55.511719 147.753906 56.101562 C 151.441406 56.777344 156.21875 58.082031 159.875 58.921875 C 163.546875 59.777344 168.367188 61.339844 172 62.363281 C 180.40625 64.996094 188.015625 67.730469 195.265625 70.714844 C 204.425781 74.316406 214.742188 79.453125 223.5 83.996094 C 229.949219 87.582031 238.710938 92.613281 244.75 96.644531 C 249.574219 99.855469 256.683594 105.042969 261.230469 108.601562 C 265.886719 112.347656 272.113281 117.734375 276.53125 121.847656 C 283.03125 128.070312 289.894531 135.238281 295.585938 142.082031 C 302.160156 149.832031 308.609375 158.851562 314.117188 167.417969 L 318.953125 175.433594 L 323.457031 183.644531 L 327.609375 192.035156 L 331.398438 200.605469 C 334.695312 208.5625 337.742188 217.445312 340.0625 225.746094 L 341.152344 230.113281 C 342.269531 234.242188 342.9375 238.199219 343.789062 242.273438 L 343.847656 242.625 C 344.453125 246.726562 345.171875 250.660156 345.53125 254.914062 C 346.054688 259.15625 346.167969 263.175781 346.398438 267.316406 L 346.410156 267.652344 C 346.691406 281.882812 345.089844 297.109375 341.097656 309.996094 C 350.417969 303.5625 361.167969 299.464844 372.144531 301.816406 Z M 369.628906 313.21875 " fill-opacity="1" fill-rule="nonzero"/></g></g></g></g></g></g></svg>