<svg xmlns="http://www.w3.org/2000/svg" xmlns:xlink="http://www.w3.org/1999/xlink" width="768" zoomAndPan="magnify" viewBox="0 0 576 576" height="768" preserveAspectRatio="xMidYMid meet" version="1.0"><defs><filter x="0%" y="0%" width="100%" height="100%" id="6cdfa8a7a8"><feColorMatrix values="0 0 0 0 1 0 0 0 0 1 0 0 0 0 1 0 0 0 1 0" color-interpolation-filters="sRGB"/></filter><clipPath id="ee271184b6"><path d="M 8.578125 397.792969 L 90.105469 397.792969 L 90.105469 480.152344 L 8.578125 480.152344 Z M 8.578125 397.792969 " clip-rule="nonzero"/></clipPath><mask id="0c8e631ebd"><g filter="url(#6cdfa8a7a8)"><rect x="-57.6" width="691.2" fill="#000000" y="-57.6" height="691.2" fill-opacity="0.8"/></g></mask><clipPath id="c2f662e034"><path d="M 0 0.199219 L 575.703125 0.199219 L 575.703125 236.46875 L 0 236.46875 Z M 0 0.199219 " clip-rule="nonzero"/></clipPath><clipPath id="b0cb10e5f3"><rect x="0" width="576" y="0" height="237"/></clipPath><clipPath id="3e8bd146dd"><path d="M 130.28125 262 L 147 262 L 147 267.175781 L 130.28125 267.175781 Z M 130.28125 262 " clip-rule="nonzero"/></clipPath><clipPath id="ba7106d803"><path d="M 180 223 L 196.835938 223 L 196.835938 229 L 180 229 Z M 180 223 " clip-rule="nonzero"/></clipPath><clipPath id="14424858f4"><path d="M 152 200.617188 L 162 200.617188 L 162 211 L 152 211 Z M 152 200.617188 " clip-rule="nonzero"/></clipPath><clipPath id="08fa5b491d"><path d="M 217.757812 189.226562 L 300.117188 189.226562 L 300.117188 274 L 217.757812 274 Z M 217.757812 189.226562 " clip-rule="nonzero"/></clipPath><clipPath id="1cf9c20d69"><path d="M 321 194.28125 L 400.757812 194.28125 L 400.757812 274 L 321 274 Z M 321 194.28125 " clip-rule="nonzero"/></clipPath><clipPath id="6f7b44c421"><path d="M 484 189.226562 L 487 189.226562 L 487 211 L 484 211 Z M 484 189.226562 " clip-rule="nonzero"/></clipPath><clipPath id="4434179478"><path d="M 421.171875 240 L 442 240 L 442 247 L 421.171875 247 Z M 421.171875 240 " clip-rule="nonzero"/></clipPath><clipPath id="2e2267b275"><path d="M 34.238281 193 L 109.945312 193 L 109.945312 271.785156 L 34.238281 271.785156 Z M 34.238281 193 " clip-rule="nonzero"/></clipPath></defs><g clip-path="url(#ee271184b6)"><path fill="#709198" d="M 11.699219 411.039062 L 11.699219 408.644531 C 11.699219 402.6875 16.527344 397.902344 22.417969 397.902344 L 26.660156 397.902344 C 32.550781 397.902344 37.375 402.6875 37.324219 408.589844 L 37.324219 410.984375 C 35.785156 411.355469 34.671875 412.582031 34.40625 413.910156 C 30.269531 413.804688 26.554688 411.675781 24.273438 408.21875 C 23.53125 407.101562 23.265625 406.625 23 406.359375 L 22.945312 406.304688 C 22.097656 405.878906 22.523438 406.199219 13.769531 412.207031 C 13.714844 412.207031 13.714844 412.15625 13.664062 412.15625 C 13.398438 411.78125 12.445312 411.199219 11.699219 411.039062 Z M 8.675781 414.761719 L 8.675781 416.035156 C 8.675781 417.3125 9.683594 418.324219 10.957031 418.324219 L 13.238281 418.324219 L 13.238281 414.761719 C 13.238281 413.484375 12.179688 412.472656 10.957031 412.472656 C 9.683594 412.472656 8.675781 413.484375 8.675781 414.761719 Z M 40.558594 449.011719 L 40.558594 436.085938 C 40.558594 432.152344 37.324219 428.90625 33.398438 428.90625 L 30.003906 428.90625 C 34.246094 438.480469 35.09375 436.566406 26.660156 436.726562 L 28.09375 449.011719 L 34.351562 449.011719 L 34.351562 442.308594 C 34.351562 441.300781 35.890625 441.300781 35.890625 442.308594 L 35.890625 449.011719 Z M 27.085938 428.90625 L 21.992188 428.90625 L 21.992188 429.492188 C 21.992188 430.929688 23.160156 432.046875 24.539062 432.046875 C 25.972656 432.046875 27.085938 430.875 27.085938 429.492188 Z M 31.117188 435.183594 L 28.625 429.707031 C 28.515625 431.246094 27.5625 432.628906 26.238281 433.214844 L 26.449219 435.183594 Z M 36.105469 413.804688 L 35.890625 414.8125 L 35.890625 418.269531 L 38.171875 418.269531 C 39.445312 418.269531 40.453125 417.261719 40.453125 415.984375 L 40.453125 414.761719 C 40.453125 412.3125 37.113281 411.570312 36.105469 413.804688 Z M 22.574219 435.183594 L 22.789062 433.164062 C 21.515625 432.523438 20.558594 431.246094 20.507812 429.757812 L 17.640625 435.183594 Z M 14.726562 418.75 L 14.726562 413.429688 L 22.3125 408.058594 C 23 408.910156 24.378906 412.207031 28.730469 414.28125 C 27.933594 414.546875 28.359375 415.503906 28.253906 416.78125 C 28.253906 417.792969 29.789062 417.792969 29.789062 416.78125 C 29.789062 415.078125 29.84375 415.027344 29.738281 414.707031 C 32.230469 415.613281 34.195312 415.503906 34.300781 415.613281 L 34.300781 418.804688 C 34.300781 422.792969 31.59375 426.25 27.667969 427.207031 C 26.289062 427.523438 25.121094 427.367188 23.371094 427.417969 C 18.386719 427.417969 14.726562 423.375 14.726562 418.75 Z M 22.363281 423.058594 C 23.742188 423.640625 25.28125 423.695312 26.820312 423.164062 C 26.875 423.109375 27.882812 422.949219 27.5625 422.046875 C 27.085938 420.664062 25.652344 422.792969 22.949219 421.621094 C 22.046875 421.195312 21.410156 422.632812 22.363281 423.058594 Z M 19.394531 416.78125 C 19.394531 417.792969 20.929688 417.792969 20.929688 416.78125 L 20.984375 415.027344 C 20.984375 414.601562 20.613281 414.230469 20.1875 414.230469 C 18.96875 414.230469 19.5 415.929688 19.394531 416.78125 Z M 13.238281 442.308594 C 13.238281 441.300781 14.777344 441.300781 14.777344 442.308594 L 14.777344 449.011719 L 20.929688 449.011719 L 22.417969 436.726562 C 13.34375 436.566406 14.40625 438.375 19.179688 428.90625 L 15.734375 428.90625 C 11.753906 428.90625 8.570312 432.152344 8.570312 436.085938 L 8.570312 449.011719 L 13.238281 449.011719 Z M 24.75 433.585938 C 24.699219 433.585938 24.644531 433.585938 24.59375 433.585938 C 24.539062 433.585938 24.433594 433.585938 24.328125 433.535156 L 22.46875 449.011719 L 26.554688 449.011719 Z M 77.375 460.394531 C 77.324219 461.988281 76.316406 463.371094 74.933594 464.007812 L 75.148438 466.03125 L 79.921875 466.03125 Z M 84.960938 444.277344 L 84.75 445.289062 L 84.75 448.796875 L 87.03125 448.796875 C 88.304688 448.796875 89.363281 447.734375 89.363281 446.511719 L 89.363281 445.234375 C 89.363281 443.957031 88.304688 442.894531 87.03125 442.894531 C 86.128906 442.894531 85.332031 443.425781 84.960938 444.277344 Z M 82.148438 459.59375 L 78.703125 459.59375 C 82.890625 469.167969 84.058594 467.359375 75.304688 467.519531 L 76.792969 480.070312 L 83.15625 480.070312 L 83.15625 473.261719 C 83.15625 472.253906 84.695312 472.253906 84.695312 473.261719 L 84.695312 480.070312 L 89.46875 480.070312 L 89.46875 466.933594 C 89.46875 462.890625 86.183594 459.59375 82.148438 459.59375 Z M 75.359375 428.109375 L 71.0625 428.109375 C 65.066406 428.109375 60.1875 433.003906 60.1875 439.011719 L 60.1875 441.460938 C 61.566406 441.777344 62.097656 442.523438 62.308594 442.683594 L 62.363281 442.683594 C 62.414062 442.683594 66.871094 441.9375 70.53125 436.832031 L 70.636719 436.671875 C 70.902344 436.300781 71.433594 436.300781 71.699219 436.671875 L 71.804688 436.886719 L 72.972656 438.640625 C 75.253906 442.203125 79.125 444.277344 83.265625 444.4375 C 83.527344 443.160156 84.589844 441.882812 86.234375 441.460938 L 86.234375 439.011719 C 86.234375 433.003906 81.355469 428.109375 75.359375 428.109375 Z M 84.644531 450.394531 C 84.378906 452.734375 83.371094 454.808594 81.832031 456.402344 C 84.960938 456.246094 88.355469 456.988281 90.105469 457.46875 C 89.683594 454.171875 89.207031 451.40625 88.941406 449.863281 C 87.5625 450.660156 86.5 450.289062 84.644531 450.394531 Z M 69.578125 480.070312 L 71.0625 467.519531 C 64.960938 467.414062 64.589844 467.839844 64.167969 467.148438 C 64.007812 466.933594 64.007812 466.613281 64.167969 466.402344 L 67.773438 459.59375 L 64.273438 459.59375 C 60.242188 459.59375 56.953125 462.890625 56.953125 466.933594 L 56.953125 480.070312 L 61.726562 480.070312 L 61.726562 473.261719 C 61.726562 472.835938 62.042969 472.464844 62.523438 472.464844 C 62.945312 472.464844 63.316406 472.785156 63.316406 473.261719 L 63.316406 480.070312 Z M 75.785156 460.179688 L 75.785156 459.59375 L 70.585938 459.59375 L 70.585938 460.179688 C 70.585938 461.617188 71.753906 462.785156 73.183594 462.785156 C 74.617188 462.785156 75.785156 461.617188 75.785156 460.179688 Z M 72.972656 464.328125 L 71.0625 480.070312 L 75.253906 480.070312 L 73.398438 464.328125 C 73.238281 464.382812 73.078125 464.328125 72.972656 464.328125 Z M 57.589844 447.949219 C 58.703125 449.222656 60.027344 448.640625 61.671875 448.796875 L 61.671875 445.183594 C 61.726562 443.957031 60.664062 442.894531 59.390625 442.894531 C 58.117188 442.894531 57.058594 443.90625 57.058594 445.183594 C 57.109375 446.085938 56.792969 447.042969 57.589844 447.949219 Z M 69.101562 460.394531 L 66.128906 465.976562 L 71.167969 465.976562 L 71.433594 463.957031 C 70.109375 463.265625 69.152344 461.933594 69.101562 460.394531 Z M 64.589844 456.457031 C 63.050781 454.808594 62.042969 452.679688 61.777344 450.394531 C 59.921875 450.289062 58.863281 450.660156 57.480469 449.863281 C 57.21875 451.40625 56.738281 454.171875 56.316406 457.519531 C 58.066406 457.042969 61.460938 456.296875 64.589844 456.457031 Z M 74.351562 458.105469 C 69.578125 458.050781 70.265625 457.839844 69.949219 457.839844 C 65.96875 456.882812 63.210938 453.371094 63.210938 449.277344 L 63.210938 444.117188 C 64.589844 443.746094 67.984375 442.46875 71.0625 438.695312 L 71.964844 440.023438 C 73.289062 442.097656 75.148438 443.691406 77.324219 444.703125 C 77.058594 444.808594 76.84375 445.074219 76.84375 445.394531 L 76.84375 447.203125 C 76.84375 447.679688 77.214844 448 77.640625 448 C 78.117188 448 78.4375 447.628906 78.4375 447.203125 L 78.4375 445.394531 C 78.4375 445.289062 78.4375 445.234375 78.382812 445.128906 C 80.929688 446.085938 83.050781 445.980469 83.105469 446.085938 L 83.105469 449.332031 C 83.105469 454.328125 79.074219 458.105469 74.351562 458.105469 Z M 69.417969 445.394531 C 69.417969 444.96875 69.046875 444.597656 68.621094 444.597656 C 68.144531 444.597656 67.828125 444.96875 67.828125 445.394531 L 67.828125 447.203125 C 67.828125 447.679688 68.199219 448 68.621094 448 C 69.046875 448 69.417969 447.628906 69.417969 447.203125 Z M 76.15625 452.574219 C 75.996094 452.148438 75.570312 451.988281 75.148438 452.097656 L 74.828125 452.203125 C 73.714844 452.628906 72.496094 452.574219 71.433594 452.148438 C 71.0625 451.988281 70.585938 452.148438 70.425781 452.574219 C 70.265625 452.945312 70.425781 453.425781 70.851562 453.585938 C 71.59375 453.902344 72.441406 454.0625 73.238281 454.0625 C 73.980469 454.0625 74.667969 453.957031 75.359375 453.691406 L 75.679688 453.585938 C 76.101562 453.425781 76.316406 453 76.15625 452.574219 Z M 80.503906 412.421875 L 62.257812 412.421875 L 62.257812 409.390625 C 62.257812 408.804688 61.621094 408.378906 61.035156 408.75 L 49.101562 417.152344 C 48.886719 417.3125 48.78125 417.578125 48.78125 417.792969 C 48.78125 418.535156 48.996094 418.21875 61.089844 426.300781 C 61.621094 426.621094 62.257812 426.25 62.257812 425.664062 L 62.257812 422.632812 L 80.503906 422.632812 C 80.929688 422.632812 81.300781 422.3125 81.300781 421.835938 L 81.300781 413.164062 C 81.300781 412.738281 80.929688 412.421875 80.503906 412.421875 Z M 37.269531 471.507812 C 37.375 471.5625 37.535156 471.613281 37.640625 471.613281 C 37.800781 471.613281 37.960938 471.5625 38.066406 471.507812 L 50.003906 463.636719 C 50.214844 463.476562 50.375 463.265625 50.375 463 C 50.320312 462.679688 50.214844 462.414062 50.003906 462.253906 L 38.066406 453.902344 C 37.855469 453.746094 37.535156 453.746094 37.269531 453.851562 C 37.003906 454.011719 36.847656 454.277344 36.847656 454.542969 L 36.847656 457.519531 L 18.597656 457.519531 C 18.171875 457.519531 17.800781 457.894531 17.800781 458.316406 L 17.800781 467.039062 C 17.800781 467.464844 18.121094 467.839844 18.597656 467.839844 L 36.847656 467.839844 L 36.847656 470.816406 C 36.847656 471.136719 37.003906 471.347656 37.269531 471.507812 Z M 37.269531 471.507812 " fill-opacity="1" fill-rule="nonzero"/></g><g mask="url(#0c8e631ebd)"><g transform="matrix(1, 0, 0, 1, 0, 142)"><g clip-path="url(#b0cb10e5f3)"><g clip-path="url(#c2f662e034)"><path fill="#02a9df" d="M 476.570312 0.199219 L 93.921875 0.199219 C 42.046875 0.199219 0 41.230469 0 91.847656 C 0 128.488281 22.042969 160.097656 53.890625 174.761719 L 53.890625 236.46875 L 117.679688 183.492188 L 476.570312 183.492188 C 533.652344 183.492188 575.703125 142.457031 575.703125 91.84375 C 575.707031 41.230469 533.652344 0.199219 476.570312 0.199219 " fill-opacity="1" fill-rule="nonzero"/></g></g></g></g><g clip-path="url(#3e8bd146dd)"><path fill="#e6f6fc" d="M 146.152344 262.332031 L 130.933594 262.332031 C 130.574219 262.332031 130.28125 262.625 130.28125 262.984375 L 130.28125 266.523438 C 130.28125 266.886719 130.574219 267.175781 130.933594 267.175781 L 146.152344 267.175781 C 146.511719 267.175781 146.804688 266.886719 146.804688 266.523438 L 146.804688 262.984375 C 146.804688 262.625 146.511719 262.332031 146.152344 262.332031 " fill-opacity="1" fill-rule="nonzero"/></g><path fill="#e6f6fc" d="M 156.160156 254.578125 L 140.9375 254.578125 C 140.578125 254.578125 140.285156 254.871094 140.285156 255.230469 L 140.285156 258.769531 C 140.285156 259.128906 140.578125 259.421875 140.9375 259.421875 L 156.160156 259.421875 C 156.519531 259.421875 156.8125 259.128906 156.8125 258.769531 L 156.8125 255.230469 C 156.8125 254.871094 156.519531 254.578125 156.160156 254.578125 " fill-opacity="1" fill-rule="nonzero"/><path fill="#e6f6fc" d="M 166.164062 246.820312 L 150.945312 246.820312 C 150.585938 246.820312 150.292969 247.113281 150.292969 247.476562 L 150.292969 251.011719 C 150.292969 251.375 150.585938 251.667969 150.945312 251.667969 L 166.164062 251.667969 C 166.523438 251.667969 166.816406 251.375 166.816406 251.011719 L 166.816406 247.476562 C 166.816406 247.113281 166.523438 246.820312 166.164062 246.820312 " fill-opacity="1" fill-rule="nonzero"/><path fill="#e6f6fc" d="M 176.167969 239.066406 L 160.949219 239.066406 C 160.589844 239.066406 160.296875 239.359375 160.296875 239.71875 L 160.296875 243.257812 C 160.296875 243.617188 160.589844 243.910156 160.949219 243.910156 L 176.167969 243.910156 C 176.53125 243.910156 176.824219 243.617188 176.824219 243.257812 L 176.824219 239.71875 C 176.824219 239.359375 176.53125 239.066406 176.167969 239.066406 " fill-opacity="1" fill-rule="nonzero"/><path fill="#e6f6fc" d="M 186.175781 231.3125 L 170.957031 231.3125 C 170.59375 231.3125 170.304688 231.601562 170.304688 231.964844 L 170.304688 235.503906 C 170.304688 235.863281 170.59375 236.15625 170.957031 236.15625 L 186.175781 236.15625 C 186.535156 236.15625 186.828125 235.863281 186.828125 235.503906 L 186.828125 231.964844 C 186.828125 231.601562 186.535156 231.3125 186.175781 231.3125 " fill-opacity="1" fill-rule="nonzero"/><g clip-path="url(#ba7106d803)"><path fill="#e6f6fc" d="M 196.179688 223.554688 L 180.960938 223.554688 C 180.601562 223.554688 180.308594 223.847656 180.308594 224.207031 L 180.308594 227.746094 C 180.308594 228.109375 180.601562 228.398438 180.960938 228.398438 L 196.179688 228.398438 C 196.542969 228.398438 196.835938 228.109375 196.835938 227.746094 L 196.835938 224.207031 C 196.835938 223.847656 196.542969 223.554688 196.179688 223.554688 " fill-opacity="1" fill-rule="nonzero"/></g><g clip-path="url(#14424858f4)"><path fill="#e6f6fc" d="M 156.785156 210.15625 C 159.414062 210.15625 161.554688 208.019531 161.554688 205.390625 C 161.554688 202.761719 159.414062 200.625 156.785156 200.625 C 154.152344 200.625 152.011719 202.761719 152.011719 205.390625 C 152.011719 208.019531 154.152344 210.15625 156.785156 210.15625 " fill-opacity="1" fill-rule="nonzero"/></g><path fill="#e6f6fc" d="M 135.652344 238.75 L 146.65625 241.1875 C 146.703125 241.199219 146.75 241.203125 146.796875 241.203125 C 147.097656 241.203125 147.367188 240.996094 147.4375 240.691406 L 148.398438 236.359375 C 147.351562 236.578125 146.285156 236.6875 145.21875 236.6875 C 144.09375 236.6875 142.96875 236.566406 141.863281 236.320312 C 139.773438 235.859375 137.816406 234.972656 136.097656 233.726562 L 135.15625 237.972656 C 135.078125 238.324219 135.300781 238.671875 135.652344 238.75 " fill-opacity="1" fill-rule="nonzero"/><path fill="#e6f6fc" d="M 142.015625 230.988281 C 142.078125 230.710938 142.242188 230.476562 142.480469 230.328125 C 142.714844 230.175781 143 230.125 143.273438 230.1875 L 143.371094 230.207031 C 143.648438 230.269531 143.882812 230.433594 144.035156 230.671875 C 144.183594 230.910156 144.234375 231.191406 144.171875 231.464844 L 144.164062 231.515625 L 142.003906 231.039062 Z M 148.710938 234.949219 L 149.082031 233.273438 C 149.117188 233.105469 149.085938 232.929688 148.996094 232.78125 C 148.902344 232.636719 148.753906 232.535156 148.585938 232.496094 L 145.4375 231.800781 L 145.449219 231.746094 C 145.628906 230.949219 145.375 230.152344 144.84375 229.601562 L 145.320312 229.707031 C 145.621094 229.769531 145.925781 229.621094 146.054688 229.34375 L 149.765625 221.351562 L 151.648438 219.242188 L 151.648438 226.464844 L 148.988281 244.621094 C 148.960938 244.804688 149.015625 244.996094 149.140625 245.140625 C 149.261719 245.285156 149.445312 245.367188 149.632812 245.367188 L 153.773438 245.367188 C 154.085938 245.367188 154.351562 245.148438 154.414062 244.84375 L 157.703125 228.847656 L 163.175781 230.519531 L 163.175781 237.316406 C 163.175781 237.675781 163.46875 237.96875 163.832031 237.96875 L 167.628906 237.96875 C 167.988281 237.96875 168.28125 237.675781 168.28125 237.316406 L 168.28125 226.378906 C 168.28125 226.089844 168.09375 225.832031 167.8125 225.753906 L 161.230469 223.816406 L 161.230469 217.234375 L 164.910156 219.472656 C 165.019531 219.546875 165.148438 219.589844 165.289062 219.589844 L 174.191406 219.589844 C 174.550781 219.589844 174.84375 219.296875 174.84375 218.9375 L 174.84375 215.457031 C 174.84375 215.097656 174.550781 214.804688 174.191406 214.804688 L 166.179688 214.804688 L 160.9375 211.746094 C 160.832031 211.675781 160.710938 211.636719 160.574219 211.636719 L 152.449219 211.636719 C 152.394531 211.625 152.339844 211.621094 152.28125 211.625 C 152.15625 211.632812 152.03125 211.675781 151.933594 211.75 C 151.867188 211.796875 151.808594 211.851562 151.765625 211.917969 L 145.515625 218.921875 C 145.472656 218.972656 145.433594 219.03125 145.40625 219.09375 L 141.460938 228.0625 C 141.378906 228.242188 141.386719 228.445312 141.476562 228.621094 C 141.5625 228.792969 141.726562 228.921875 141.917969 228.960938 L 142.179688 229.019531 C 142.042969 229.074219 141.90625 229.144531 141.777344 229.226562 C 141.246094 229.5625 140.875 230.089844 140.738281 230.703125 L 140.726562 230.757812 L 137.582031 230.058594 C 137.414062 230.023438 137.234375 230.054688 137.089844 230.148438 C 136.941406 230.238281 136.839844 230.386719 136.800781 230.554688 L 136.410156 232.324219 C 138.085938 233.648438 140.046875 234.582031 142.144531 235.046875 C 144.316406 235.527344 146.566406 235.492188 148.710938 234.949219 " fill-opacity="1" fill-rule="nonzero"/><g clip-path="url(#08fa5b491d)"><path fill="#e6f6fc" d="M 295.046875 217.816406 L 293.964844 212.839844 L 293.394531 213.035156 C 292.160156 213.464844 291.074219 214.140625 290.144531 215.0625 C 289.210938 215.980469 288.515625 217.058594 288.066406 218.289062 C 287.59375 219.765625 287.550781 221.257812 287.9375 222.757812 L 287.3125 223.523438 C 284.585938 221.253906 281.515625 219.648438 278.101562 218.699219 L 278.101562 207.09375 C 278.101562 203.292969 276.277344 201.441406 272.515625 201.441406 L 263.257812 201.441406 C 262.457031 198.101562 260.964844 196.972656 257.480469 196.972656 L 257.125 196.960938 C 256.835938 196.945312 256.546875 196.953125 256.257812 196.984375 C 256.121094 197.011719 255.988281 197 255.859375 196.941406 C 255.816406 196.90625 255.753906 196.800781 255.71875 196.476562 C 255.671875 196.023438 255.585938 195.578125 255.457031 195.140625 C 255.332031 194.703125 255.167969 194.28125 254.96875 193.871094 C 254.769531 193.464844 254.539062 193.074219 254.269531 192.707031 C 254.003906 192.339844 253.707031 191.996094 253.378906 191.679688 C 253.054688 191.363281 252.703125 191.078125 252.328125 190.824219 C 251.949219 190.570312 251.554688 190.351562 251.140625 190.167969 C 250.726562 189.980469 250.300781 189.832031 249.859375 189.722656 C 249.417969 189.613281 248.972656 189.542969 248.519531 189.507812 C 248.070312 189.476562 247.617188 189.484375 247.167969 189.53125 C 246.714844 189.578125 246.273438 189.664062 245.835938 189.789062 C 245.398438 189.914062 244.976562 190.074219 244.570312 190.273438 C 244.160156 190.472656 243.773438 190.707031 243.40625 190.972656 C 243.039062 191.238281 242.699219 191.535156 242.382812 191.863281 C 242.066406 192.1875 241.78125 192.539062 241.523438 192.917969 C 241.269531 193.292969 241.050781 193.6875 240.863281 194.105469 C 240.675781 194.519531 240.527344 194.949219 240.417969 195.390625 C 240.367188 195.601562 240.324219 195.816406 240.300781 196.035156 C 240.246094 196.378906 240.179688 196.84375 240.042969 196.941406 C 239.691406 197.0625 239.332031 197.082031 238.96875 197.003906 C 238.761719 196.960938 238.550781 196.949219 238.335938 196.972656 C 235.011719 196.972656 233.414062 198.230469 232.726562 201.441406 L 223.3125 201.441406 C 219.75 201.445312 217.863281 203.347656 217.863281 206.957031 L 217.863281 268.539062 C 217.832031 268.898438 217.835938 269.253906 217.882812 269.613281 C 217.929688 269.972656 218.011719 270.320312 218.136719 270.65625 C 218.257812 270.996094 218.414062 271.320312 218.605469 271.621094 C 218.800781 271.925781 219.023438 272.207031 219.277344 272.460938 C 219.53125 272.714844 219.808594 272.941406 220.113281 273.132812 C 220.414062 273.328125 220.734375 273.484375 221.074219 273.609375 C 221.410156 273.730469 221.757812 273.816406 222.113281 273.859375 C 222.46875 273.90625 222.824219 273.914062 223.183594 273.878906 L 272.632812 273.878906 C 276.214844 273.878906 278.113281 271.984375 278.113281 268.398438 L 278.113281 263.703125 C 279.25 263.390625 280.359375 262.992188 281.433594 262.511719 C 282.511719 262.027344 283.546875 261.46875 284.539062 260.828125 C 285.53125 260.1875 286.46875 259.472656 287.351562 258.6875 C 288.234375 257.90625 289.054688 257.058594 289.808594 256.148438 C 290.566406 255.238281 291.246094 254.277344 291.855469 253.261719 C 292.464844 252.246094 292.992188 251.191406 293.441406 250.097656 C 293.890625 249 294.253906 247.878906 294.53125 246.726562 C 294.808594 245.574219 295 244.410156 295.101562 243.230469 C 295.234375 241.679688 295.214844 240.132812 295.050781 238.585938 C 294.882812 237.039062 294.566406 235.523438 294.105469 234.039062 C 293.640625 232.554688 293.039062 231.125 292.300781 229.761719 C 291.558594 228.394531 290.695312 227.109375 289.707031 225.914062 L 290.347656 225.375 C 292.164062 225.726562 293.898438 225.496094 295.5625 224.6875 C 296.632812 224.125 297.546875 223.371094 298.304688 222.421875 C 299.0625 221.472656 299.59375 220.410156 299.902344 219.238281 L 300.042969 218.664062 Z M 236.480469 205.308594 C 236.46875 204.242188 236.46875 203.164062 236.480469 202.097656 C 236.492188 201.097656 236.855469 200.742188 237.84375 200.71875 C 238.550781 200.699219 239.269531 200.707031 239.976562 200.707031 L 241.703125 200.707031 C 243.25 200.6875 243.859375 200.0625 243.902344 198.5 L 243.914062 198.050781 C 243.902344 197.648438 243.921875 197.25 243.964844 196.851562 C 244.023438 196.363281 244.164062 195.898438 244.390625 195.457031 C 244.617188 195.019531 244.914062 194.632812 245.28125 194.304688 C 245.648438 193.972656 246.058594 193.71875 246.519531 193.539062 C 246.976562 193.359375 247.453125 193.265625 247.945312 193.261719 L 247.976562 193.261719 C 248.476562 193.261719 248.957031 193.351562 249.421875 193.527344 C 249.886719 193.707031 250.304688 193.960938 250.679688 194.292969 C 251.050781 194.625 251.351562 195.015625 251.578125 195.457031 C 251.808594 195.902344 251.953125 196.371094 252.011719 196.867188 C 252.054688 197.246094 252.054688 197.621094 252.0625 198 C 252.0625 198.246094 252.0625 198.484375 252.074219 198.722656 C 252.050781 198.992188 252.085938 199.253906 252.179688 199.511719 C 252.273438 199.765625 252.414062 199.992188 252.609375 200.183594 C 252.800781 200.375 253.023438 200.515625 253.28125 200.605469 C 253.535156 200.695312 253.800781 200.730469 254.070312 200.703125 C 254.808594 200.722656 255.539062 200.714844 256.265625 200.714844 C 256.855469 200.714844 257.445312 200.714844 258.035156 200.722656 C 259.140625 200.734375 259.484375 201.078125 259.496094 202.210938 C 259.496094 203.46875 259.507812 204.730469 259.496094 205.988281 C 259.484375 207.046875 259.128906 207.410156 258.078125 207.410156 C 255.65625 207.421875 253.234375 207.410156 250.796875 207.410156 L 238.070312 207.410156 C 236.78125 207.410156 236.480469 207.097656 236.480469 205.773438 Z M 274.359375 268.492188 C 274.359375 269.804688 274.058594 270.117188 272.761719 270.117188 L 223.214844 270.117188 C 222.746094 270.179688 222.316406 270.070312 221.929688 269.792969 C 221.65625 269.402344 221.546875 268.96875 221.605469 268.492188 L 221.617188 252.207031 C 221.628906 244.367188 221.632812 236.527344 221.628906 228.6875 C 221.628906 224.28125 221.625 219.871094 221.617188 215.453125 L 221.617188 206.902344 C 221.542969 206.398438 221.644531 205.933594 221.929688 205.511719 C 222.359375 205.234375 222.828125 205.128906 223.332031 205.199219 L 232.726562 205.199219 L 232.726562 205.339844 C 232.726562 205.695312 232.726562 206.027344 232.738281 206.363281 C 232.738281 206.675781 232.769531 206.988281 232.828125 207.292969 C 232.886719 207.601562 232.976562 207.902344 233.097656 208.191406 C 233.214844 208.480469 233.359375 208.757812 233.53125 209.015625 C 233.707031 209.277344 233.902344 209.519531 234.121094 209.742188 C 234.34375 209.964844 234.582031 210.164062 234.839844 210.339844 C 235.097656 210.515625 235.371094 210.664062 235.660156 210.785156 C 235.949219 210.90625 236.246094 210.996094 236.550781 211.058594 C 236.855469 211.121094 237.167969 211.152344 237.480469 211.15625 C 244.289062 211.1875 251.355469 211.1875 258.488281 211.15625 C 258.800781 211.152344 259.109375 211.121094 259.414062 211.0625 C 259.722656 211 260.019531 210.90625 260.308594 210.785156 C 260.597656 210.664062 260.871094 210.515625 261.128906 210.34375 C 261.390625 210.167969 261.628906 209.96875 261.851562 209.746094 C 262.070312 209.523438 262.265625 209.28125 262.441406 209.019531 C 262.613281 208.757812 262.761719 208.484375 262.878906 208.191406 C 262.996094 207.902344 263.085938 207.605469 263.148438 207.296875 C 263.207031 206.988281 263.238281 206.675781 263.238281 206.363281 C 263.25 206.0625 263.238281 205.75 263.238281 205.382812 L 263.238281 205.199219 L 272.429688 205.199219 C 274.167969 205.199219 274.359375 205.394531 274.359375 207.09375 L 274.359375 217.972656 C 272.738281 217.789062 271.113281 217.777344 269.492188 217.945312 C 267.867188 218.109375 266.28125 218.445312 264.726562 218.949219 C 263.175781 219.457031 261.695312 220.125 260.285156 220.949219 C 258.875 221.773438 257.566406 222.738281 256.363281 223.847656 L 247.078125 223.847656 C 246.820312 223.839844 246.5625 223.851562 246.304688 223.878906 C 246.078125 223.902344 245.867188 223.964844 245.664062 224.066406 C 245.460938 224.167969 245.285156 224.300781 245.132812 224.46875 C 244.980469 224.636719 244.863281 224.828125 244.777344 225.039062 C 244.695312 225.25 244.652344 225.46875 244.648438 225.695312 C 244.648438 225.921875 244.683594 226.140625 244.761719 226.355469 C 244.839844 226.566406 244.953125 226.761719 245.101562 226.929688 C 245.253906 227.101562 245.425781 227.242188 245.625 227.347656 C 245.824219 227.453125 246.039062 227.523438 246.261719 227.550781 C 246.472656 227.582031 246.683594 227.59375 246.894531 227.59375 L 253.070312 227.59375 C 250.695312 230.953125 249.308594 234.679688 248.921875 238.78125 L 247.054688 238.78125 C 246.792969 238.777344 246.53125 238.789062 246.273438 238.816406 C 246.046875 238.839844 245.832031 238.90625 245.632812 239.011719 C 245.429688 239.117188 245.253906 239.253906 245.105469 239.425781 C 244.953125 239.59375 244.839844 239.785156 244.761719 240 C 244.679688 240.214844 244.640625 240.433594 244.640625 240.660156 C 244.644531 240.890625 244.683594 241.109375 244.765625 241.320312 C 244.851562 241.53125 244.96875 241.722656 245.121094 241.890625 C 245.273438 242.058594 245.449219 242.195312 245.652344 242.296875 C 245.855469 242.402344 246.066406 242.464844 246.292969 242.488281 C 246.441406 242.507812 246.59375 242.519531 246.746094 242.519531 L 248.847656 242.519531 C 249.074219 246.5625 250.265625 250.296875 252.417969 253.71875 L 246.949219 253.71875 C 246.894531 253.71875 246.832031 253.710938 246.765625 253.710938 C 246.453125 253.640625 246.167969 253.703125 245.90625 253.890625 L 245.757812 254.03125 C 245.265625 254.390625 244.910156 254.851562 244.695312 255.421875 C 244.582031 255.816406 244.632812 256.191406 244.847656 256.542969 C 245.125 256.980469 245.519531 257.253906 246.027344 257.359375 C 246.367188 257.429688 246.707031 257.460938 247.054688 257.445312 L 255.367188 257.445312 C 256.445312 258.566406 257.621094 259.566406 258.902344 260.449219 C 260.179688 261.332031 261.53125 262.078125 262.960938 262.6875 C 264.386719 263.296875 265.863281 263.757812 267.382812 264.070312 C 268.902344 264.382812 270.4375 264.539062 271.988281 264.542969 C 272.78125 264.542969 273.570312 264.5 274.359375 264.414062 Z M 286.84375 254.324219 C 284.453125 257.050781 281.546875 258.984375 278.113281 260.128906 C 276.890625 260.539062 275.640625 260.820312 274.359375 260.96875 C 273.871094 261.042969 273.382812 261.089844 272.890625 261.109375 C 270.6875 261.226562 268.527344 260.96875 266.410156 260.34375 C 264.292969 259.714844 262.34375 258.75 260.558594 257.445312 C 259.929688 256.996094 259.332031 256.507812 258.765625 255.980469 C 258.007812 255.277344 257.304688 254.523438 256.652344 253.71875 C 255.359375 252.125 254.335938 250.371094 253.578125 248.460938 C 252.820312 246.550781 252.367188 244.570312 252.214844 242.519531 C 252.179688 242.207031 252.171875 241.882812 252.160156 241.570312 C 252.136719 240.640625 252.179688 239.710938 252.289062 238.78125 C 252.53125 236.683594 253.097656 234.675781 253.988281 232.761719 C 254.878906 230.847656 256.050781 229.125 257.5 227.59375 C 257.589844 227.480469 257.6875 227.371094 257.789062 227.269531 C 259.097656 225.921875 260.5625 224.78125 262.1875 223.847656 C 265.222656 222.09375 268.488281 221.21875 271.988281 221.21875 C 272.78125 221.214844 273.574219 221.265625 274.359375 221.367188 C 276.296875 221.601562 278.15625 222.113281 279.941406 222.90625 C 281.722656 223.699219 283.351562 224.738281 284.824219 226.019531 L 281.179688 229.542969 C 280.21875 228.8125 279.195312 228.191406 278.101562 227.679688 C 276.910156 227.113281 275.660156 226.726562 274.359375 226.515625 C 273.085938 226.308594 271.8125 226.28125 270.53125 226.429688 C 269.894531 226.488281 269.265625 226.589844 268.644531 226.730469 C 267.746094 226.929688 266.878906 227.214844 266.039062 227.582031 C 263.566406 228.667969 261.5625 230.324219 260.019531 232.546875 C 258.671875 234.421875 257.816406 236.5 257.445312 238.78125 C 257.238281 240.023438 257.195312 241.269531 257.320312 242.519531 C 257.503906 244.347656 258.007812 246.085938 258.828125 247.730469 C 259.648438 249.375 260.730469 250.816406 262.078125 252.0625 C 262.738281 252.683594 263.453125 253.234375 264.226562 253.710938 C 266.183594 254.957031 268.316406 255.679688 270.628906 255.882812 C 271.875 256.011719 273.121094 255.972656 274.359375 255.765625 C 276.914062 255.367188 279.195312 254.347656 281.203125 252.707031 C 281.945312 252.105469 282.621094 251.4375 283.234375 250.703125 C 283.851562 249.96875 284.386719 249.183594 284.851562 248.34375 C 285.316406 247.507812 285.695312 246.632812 285.992188 245.722656 C 286.285156 244.808594 286.492188 243.878906 286.609375 242.925781 C 286.730469 241.976562 286.753906 241.023438 286.6875 240.066406 C 286.625 239.109375 286.46875 238.167969 286.222656 237.242188 C 285.976562 236.316406 285.644531 235.421875 285.226562 234.558594 C 284.8125 233.699219 284.316406 232.882812 283.742188 232.117188 L 287.261719 228.550781 C 288.011719 229.453125 288.675781 230.410156 289.257812 231.429688 C 289.839844 232.449219 290.324219 233.511719 290.714844 234.617188 C 291.105469 235.726562 291.394531 236.859375 291.582031 238.015625 C 291.773438 239.175781 291.859375 240.34375 291.839844 241.515625 C 291.820312 242.691406 291.695312 243.851562 291.46875 245.003906 C 291.242188 246.15625 290.917969 247.277344 290.492188 248.371094 C 290.066406 249.464844 289.542969 250.511719 288.933594 251.511719 C 288.320312 252.511719 287.621094 253.449219 286.84375 254.324219 Z M 264.707031 249.84375 C 263.613281 248.914062 262.726562 247.816406 262.050781 246.550781 C 261.371094 245.285156 260.949219 243.9375 260.78125 242.507812 C 260.761719 242.316406 260.738281 242.121094 260.730469 241.917969 C 260.65625 240.859375 260.734375 239.816406 260.964844 238.78125 C 261.390625 236.765625 262.296875 234.992188 263.679688 233.460938 C 264.6875 232.355469 265.867188 231.484375 267.222656 230.851562 C 268.578125 230.21875 270.003906 229.871094 271.496094 229.8125 C 271.679688 229.800781 271.859375 229.800781 272.054688 229.800781 C 272.832031 229.796875 273.601562 229.878906 274.359375 230.050781 C 275.714844 230.320312 276.960938 230.847656 278.101562 231.632812 C 278.335938 231.792969 278.5625 231.964844 278.789062 232.148438 L 278.101562 232.839844 L 275.570312 235.378906 C 275.183594 235.171875 274.777344 235 274.359375 234.863281 C 273.554688 234.5625 272.722656 234.417969 271.867188 234.425781 C 271.011719 234.433594 270.183594 234.59375 269.382812 234.90625 C 268.667969 235.210938 268.023438 235.632812 267.449219 236.160156 C 266.878906 236.691406 266.414062 237.304688 266.050781 237.996094 C 265.691406 238.691406 265.457031 239.425781 265.351562 240.199219 C 265.242188 240.972656 265.269531 241.742188 265.425781 242.507812 C 265.648438 243.648438 266.136719 244.65625 266.894531 245.535156 C 267.34375 246.058594 267.863281 246.503906 268.445312 246.871094 C 269.03125 247.238281 269.65625 247.507812 270.324219 247.683594 C 270.988281 247.859375 271.667969 247.929688 272.355469 247.898438 C 273.042969 247.863281 273.710938 247.730469 274.359375 247.496094 C 274.722656 247.363281 275.070312 247.199219 275.398438 247 C 276.078125 246.539062 276.652344 245.96875 277.121094 245.289062 C 277.585938 244.613281 277.914062 243.871094 278.101562 243.070312 C 278.589844 241.214844 278.4375 239.414062 277.640625 237.671875 L 280.921875 234.40625 C 283.808594 237.59375 284.34375 244.023438 280.6875 248.386719 C 279.9375 249.277344 279.082031 250.046875 278.113281 250.691406 C 276.957031 251.441406 275.707031 251.964844 274.359375 252.261719 C 273.859375 252.378906 273.351562 252.457031 272.835938 252.5 C 271.359375 252.625 269.914062 252.453125 268.503906 251.992188 C 267.09375 251.53125 265.828125 250.8125 264.707031 249.839844 Z M 269.308594 239.179688 L 269.5 238.921875 C 269.789062 238.578125 270.132812 238.3125 270.539062 238.125 C 270.945312 237.933594 271.371094 237.84375 271.816406 237.847656 C 272.109375 237.84375 272.394531 237.882812 272.675781 237.953125 L 270.96875 239.785156 C 270.917969 239.839844 270.847656 239.921875 270.769531 240.019531 C 270.769531 240.019531 270.675781 240.140625 270.605469 240.246094 C 270.332031 240.683594 270.261719 241.148438 270.390625 241.648438 C 270.488281 241.929688 270.648438 242.171875 270.875 242.367188 C 270.953125 242.449219 271.039062 242.519531 271.132812 242.585938 C 271.246094 242.660156 271.363281 242.722656 271.492188 242.765625 C 271.507812 242.773438 271.515625 242.78125 271.53125 242.785156 C 271.546875 242.792969 271.566406 242.785156 271.582031 242.792969 C 271.726562 242.839844 271.871094 242.863281 272.019531 242.871094 C 272.5625 242.820312 273.011719 242.585938 273.363281 242.167969 C 273.703125 241.804688 274.039062 241.414062 274.359375 241.050781 C 274.457031 240.941406 274.542969 240.84375 274.628906 240.738281 L 275.078125 240.285156 C 275.269531 240.84375 275.300781 241.410156 275.171875 241.988281 C 275.042969 242.5625 274.769531 243.0625 274.359375 243.484375 C 274.238281 243.605469 274.109375 243.722656 273.972656 243.828125 C 273.65625 244.0625 273.3125 244.230469 272.9375 244.34375 C 272.5625 244.453125 272.179688 244.496094 271.789062 244.472656 C 271.398438 244.449219 271.019531 244.359375 270.660156 244.207031 C 270.300781 244.050781 269.980469 243.839844 269.695312 243.570312 C 269.371094 243.261719 269.125 242.902344 268.953125 242.492188 C 268.726562 241.945312 268.644531 241.378906 268.707031 240.789062 C 268.773438 240.199219 268.972656 239.664062 269.308594 239.175781 Z M 293.566406 221.820312 C 292.828125 222.195312 292.070312 222.242188 291.292969 221.972656 C 290.851562 220.128906 291.015625 219.375 291.871094 218.632812 L 292.363281 220.636719 L 294.414062 221.089844 C 294.183594 221.394531 293.902344 221.636719 293.566406 221.816406 Z M 225.855469 227.027344 C 225.589844 226.765625 225.421875 226.449219 225.347656 226.078125 C 225.273438 225.710938 225.304688 225.355469 225.445312 225.007812 C 225.585938 224.660156 225.8125 224.378906 226.117188 224.167969 C 226.425781 223.957031 226.765625 223.847656 227.140625 223.839844 C 227.683594 223.855469 228.148438 224.058594 228.535156 224.445312 C 229.285156 225.199219 230.003906 225.972656 230.753906 226.78125 L 231.417969 227.492188 L 236.878906 220.921875 C 237.125 220.621094 237.371094 220.320312 237.640625 220.039062 C 237.792969 219.847656 237.972656 219.695312 238.1875 219.578125 C 238.398438 219.460938 238.625 219.386719 238.867188 219.363281 C 239.109375 219.335938 239.347656 219.355469 239.582031 219.425781 C 239.8125 219.496094 240.023438 219.605469 240.214844 219.761719 C 240.617188 220.074219 240.855469 220.488281 240.921875 221 C 240.96875 221.546875 240.820312 222.03125 240.46875 222.453125 C 239.613281 223.527344 238.722656 224.59375 237.84375 225.652344 L 235.710938 228.214844 C 234.871094 229.214844 234.035156 230.21875 233.222656 231.230469 C 232.863281 231.746094 232.375 232.039062 231.75 232.113281 C 231.71875 232.121094 231.6875 232.125 231.65625 232.125 C 231.140625 232.105469 230.703125 231.90625 230.347656 231.53125 C 229.015625 230.261719 227.632812 228.871094 225.855469 227.027344 Z M 240.675781 237.09375 C 240.546875 237.328125 240.390625 237.546875 240.203125 237.738281 L 240.085938 237.878906 C 237.863281 240.558594 235.644531 243.234375 233.425781 245.902344 C 233.027344 246.535156 232.457031 246.910156 231.71875 247.019531 L 231.65625 247.019531 C 230.933594 246.941406 230.347656 246.613281 229.898438 246.042969 C 228.578125 244.726562 227.3125 243.457031 226.046875 242.175781 C 225.828125 242.007812 225.65625 241.804688 225.527344 241.566406 C 225.394531 241.324219 225.320312 241.066406 225.304688 240.792969 C 225.285156 240.519531 225.324219 240.253906 225.421875 239.996094 C 225.519531 239.742188 225.664062 239.515625 225.855469 239.324219 C 226.050781 239.128906 226.277344 238.988281 226.53125 238.890625 C 226.789062 238.796875 227.050781 238.757812 227.324219 238.78125 C 227.597656 238.800781 227.851562 238.875 228.09375 239.007812 C 228.332031 239.140625 228.53125 239.316406 228.695312 239.535156 C 229.390625 240.238281 230.078125 240.949219 230.808594 241.691406 L 231.460938 242.378906 L 236.996094 235.722656 C 237.246094 235.402344 237.519531 235.097656 237.8125 234.808594 C 237.96875 234.636719 238.15625 234.496094 238.367188 234.398438 C 238.582031 234.300781 238.804688 234.246094 239.039062 234.234375 C 239.273438 234.226562 239.503906 234.261719 239.722656 234.347656 C 239.941406 234.429688 240.136719 234.550781 240.308594 234.710938 C 240.480469 234.851562 240.621094 235.019531 240.734375 235.210938 C 240.84375 235.40625 240.914062 235.613281 240.949219 235.832031 C 240.984375 236.050781 240.976562 236.269531 240.929688 236.488281 C 240.882812 236.703125 240.796875 236.90625 240.675781 237.09375 Z M 240.289062 249.691406 C 241.136719 250.433594 241.113281 251.554688 240.246094 252.621094 C 239.65625 253.34375 239.066406 254.054688 238.476562 254.753906 L 236.382812 257.285156 C 235.367188 258.5 234.347656 259.726562 233.328125 260.957031 C 232.941406 261.527344 232.402344 261.859375 231.71875 261.949219 C 231.695312 261.957031 231.671875 261.960938 231.644531 261.957031 C 231.011719 261.90625 230.492188 261.636719 230.078125 261.152344 C 228.71875 259.792969 227.355469 258.4375 226.015625 257.070312 C 225.5625 256.640625 225.328125 256.113281 225.316406 255.484375 C 225.335938 254.976562 225.53125 254.546875 225.90625 254.203125 C 226.101562 254.027344 226.320312 253.898438 226.570312 253.816406 C 226.816406 253.730469 227.070312 253.699219 227.332031 253.71875 C 227.589844 253.738281 227.835938 253.8125 228.070312 253.933594 C 228.300781 254.054688 228.5 254.214844 228.664062 254.421875 C 229.382812 255.140625 230.078125 255.875 230.808594 256.636719 L 231.460938 257.328125 L 236.972656 250.683594 C 237.09375 250.53125 237.222656 250.382812 237.351562 250.230469 C 237.765625 249.660156 238.316406 249.324219 239.011719 249.21875 C 239.503906 249.195312 239.929688 249.351562 240.289062 249.691406 Z M 240.289062 249.691406 " fill-opacity="1" fill-rule="nonzero"/></g><g clip-path="url(#1cf9c20d69)"><path fill="#e6f6fc" d="M 371.074219 194.636719 L 369.863281 202.078125 C 368.898438 202.386719 367.96875 202.765625 367.078125 203.222656 L 360.9375 198.832031 L 354.660156 205.113281 L 358.976562 211.28125 C 358.511719 212.179688 358.121094 213.117188 357.804688 214.097656 L 350.390625 215.332031 L 350.390625 224.210938 L 357.792969 225.519531 C 358.109375 226.496094 358.5 227.433594 358.964844 228.335938 L 354.589844 234.453125 L 360.863281 240.734375 L 367.046875 236.40625 C 367.941406 236.867188 368.875 237.25 369.84375 237.5625 L 371.082031 245.007812 L 379.960938 245.007812 L 381.285156 237.542969 C 382.25 237.226562 383.179688 236.835938 384.070312 236.375 L 390.28125 240.734375 L 396.566406 234.449219 L 392.125 228.28125 C 392.578125 227.398438 392.957031 226.480469 393.265625 225.527344 L 400.757812 224.214844 L 400.757812 215.328125 L 393.257812 214.101562 C 392.945312 213.144531 392.566406 212.226562 392.113281 211.34375 L 396.480469 205.117188 L 390.199219 198.835938 L 384.046875 203.257812 C 383.160156 202.796875 382.234375 202.414062 381.269531 202.101562 L 379.960938 194.636719 Z M 354.015625 195.148438 C 353.914062 195.148438 353.8125 195.15625 353.710938 195.171875 C 345.121094 196.507812 339.238281 200.378906 335.503906 205.632812 C 331.859375 210.753906 330.253906 217.074219 329.511719 223.5625 L 322.226562 236.121094 L 322.21875 236.132812 C 320.980469 238.363281 321.769531 241.277344 324.019531 242.527344 L 324.054688 242.546875 L 329.554688 245.296875 L 331.324219 258.261719 L 331.328125 258.285156 C 332.101562 263.105469 336.328125 266.78125 341.226562 266.585938 L 346.792969 266.59375 L 346.792969 273.789062 L 348.289062 273.789062 C 348.488281 273.820312 348.683594 273.820312 348.878906 273.789062 L 350.390625 273.789062 L 350.390625 262.996094 L 341.121094 262.988281 L 341.082031 262.988281 C 338.085938 263.109375 335.371094 260.785156 334.878906 257.714844 L 334.882812 257.757812 L 332.863281 242.929688 L 325.769531 239.382812 C 325.179688 239.054688 325.023438 238.492188 325.363281 237.882812 L 332.957031 224.796875 L 332.996094 224.417969 C 333.675781 218.09375 335.230469 212.222656 338.4375 207.71875 C 341.640625 203.214844 346.449219 199.941406 354.265625 198.726562 C 354.492188 198.695312 354.703125 198.625 354.902344 198.511719 C 355.097656 198.398438 355.269531 198.253906 355.414062 198.078125 C 355.554688 197.902344 355.660156 197.703125 355.730469 197.488281 C 355.796875 197.269531 355.824219 197.046875 355.808594 196.820312 C 355.792969 196.59375 355.734375 196.378906 355.636719 196.171875 C 355.539062 195.96875 355.40625 195.789062 355.242188 195.632812 C 355.074219 195.476562 354.886719 195.359375 354.675781 195.273438 C 354.464844 195.191406 354.246094 195.148438 354.015625 195.148438 Z M 374.132812 198.234375 L 376.941406 198.234375 L 378.09375 204.820312 L 379.230469 205.105469 C 380.710938 205.472656 382.101562 206.058594 383.375 206.828125 L 384.390625 207.445312 L 389.816406 203.539062 L 391.800781 205.527344 L 387.945312 211.027344 L 388.546875 212.027344 C 389.308594 213.296875 389.886719 214.679688 390.257812 216.152344 L 390.542969 217.300781 L 397.160156 218.382812 L 397.160156 221.1875 L 390.539062 222.355469 L 390.257812 223.488281 C 389.890625 224.960938 389.3125 226.34375 388.550781 227.613281 L 387.941406 228.628906 L 391.859375 234.070312 L 389.875 236.054688 L 384.378906 232.199219 L 383.375 232.808594 C 382.113281 233.578125 380.714844 234.167969 379.234375 234.542969 L 378.109375 234.828125 L 376.945312 241.410156 L 374.128906 241.410156 L 373.039062 234.84375 L 371.890625 234.558594 C 370.40625 234.191406 369.007812 233.609375 367.730469 232.839844 L 366.726562 232.238281 L 361.277344 236.054688 L 359.289062 234.066406 L 363.148438 228.667969 L 362.535156 227.65625 C 361.757812 226.371094 361.171875 224.976562 360.800781 223.484375 L 360.519531 222.351562 L 353.988281 221.195312 L 353.988281 218.378906 L 360.519531 217.289062 L 360.808594 216.148438 C 361.183594 214.652344 361.765625 213.25 362.539062 211.96875 L 363.148438 210.96875 L 359.339844 205.523438 L 361.328125 203.535156 L 366.738281 207.398438 L 367.75 206.789062 C 369.023438 206.027344 370.421875 205.445312 371.90625 205.082031 L 373.0625 204.800781 Z M 375.574219 210.828125 C 370.628906 210.828125 366.582031 214.875 366.582031 219.820312 C 366.582031 224.765625 370.628906 228.816406 375.574219 228.816406 C 380.519531 228.816406 384.570312 224.765625 384.570312 219.820312 C 384.570312 214.875 380.519531 210.828125 375.574219 210.828125 Z M 375.574219 214.425781 C 378.578125 214.425781 380.972656 216.820312 380.972656 219.820312 C 380.972656 222.824219 378.578125 225.21875 375.574219 225.21875 C 372.574219 225.21875 370.179688 222.824219 370.179688 219.820312 C 370.179688 216.820312 372.574219 214.425781 375.574219 214.425781 Z M 386.375 244.34375 C 385.742188 244.347656 385.25 244.609375 384.894531 245.132812 C 381.402344 250.125 379.199219 256.003906 379.199219 262.265625 L 379.199219 270.191406 L 379.171875 270.191406 L 379.171875 273.789062 L 380.695312 273.789062 C 380.894531 273.820312 381.089844 273.820312 381.285156 273.789062 L 382.769531 273.789062 L 382.769531 272.328125 C 382.789062 272.214844 382.800781 272.101562 382.796875 271.988281 L 382.796875 262.265625 C 382.796875 256.847656 384.699219 251.679688 387.839844 247.195312 C 388.039062 246.921875 388.148438 246.617188 388.175781 246.277344 C 388.199219 245.941406 388.136719 245.621094 387.980469 245.320312 C 387.828125 245.019531 387.605469 244.78125 387.316406 244.605469 C 387.027344 244.429688 386.714844 244.34375 386.375 244.34375 Z M 386.375 244.34375 " fill-opacity="1" fill-rule="nonzero"/></g><path fill="#e6f6fc" d="M 463.242188 228.886719 L 463.242188 238.503906 C 463.242188 240.917969 463.914062 243.273438 465.203125 245.324219 L 470.960938 254.523438 C 470.476562 254.765625 470.136719 255.25 470.136719 255.824219 L 470.136719 271.613281 C 470.136719 272.414062 470.789062 273.070312 471.597656 273.070312 L 499.410156 273.070312 C 500.21875 273.070312 500.871094 272.414062 500.871094 271.613281 L 500.871094 255.832031 C 500.871094 255.292969 500.570312 254.855469 500.15625 254.597656 L 504.5 244.511719 C 505.191406 242.890625 505.546875 241.175781 505.546875 239.425781 L 505.546875 223.648438 C 505.546875 220.550781 503.023438 218.03125 499.917969 218.03125 C 498.664062 218.03125 497.515625 218.457031 496.578125 219.15625 C 495.648438 217.34375 493.773438 216.085938 491.59375 216.085938 C 490.019531 216.085938 488.601562 216.738281 487.578125 217.785156 C 486.542969 216.542969 485.007812 215.742188 483.273438 215.742188 C 481.457031 215.742188 479.855469 216.621094 478.824219 217.960938 C 477.816406 216.996094 476.453125 216.398438 474.953125 216.398438 C 472.304688 216.398438 470.089844 218.246094 469.496094 220.71875 C 469.398438 220.910156 469.332031 221.132812 469.332031 221.363281 L 469.332031 222.488281 C 465.949219 222.667969 463.242188 225.453125 463.242188 228.886719 Z M 497.941406 270.152344 L 473.054688 270.152344 L 473.054688 257.292969 L 497.941406 257.292969 Z M 497.066406 254.371094 L 474.308594 254.371094 L 467.679688 243.773438 C 466.691406 242.195312 466.164062 240.367188 466.164062 238.5 L 466.164062 228.882812 C 466.164062 226.9375 467.75 225.359375 469.695312 225.359375 L 485.949219 225.359375 C 487.804688 225.359375 489.3125 226.867188 489.3125 228.710938 C 489.3125 230.5625 487.800781 232.070312 485.949219 232.070312 L 479.667969 232.070312 C 479.03125 232.070312 478.472656 232.484375 478.273438 233.089844 C 478.078125 233.691406 478.300781 234.355469 478.820312 234.726562 C 482.183594 237.105469 484.722656 240.574219 485.960938 244.507812 C 486.207031 245.277344 487.027344 245.695312 487.796875 245.453125 C 488.566406 245.214844 488.992188 244.394531 488.746094 243.621094 C 488.488281 242.8125 488.183594 242.007812 487.832031 241.238281 C 488.832031 242.148438 490.144531 242.710938 491.597656 242.710938 C 493.414062 242.710938 495.011719 241.835938 496.039062 240.496094 C 497.054688 241.464844 498.417969 242.066406 499.921875 242.066406 C 500.8125 242.066406 501.652344 241.835938 502.40625 241.460938 C 502.269531 242.105469 502.074219 242.738281 501.8125 243.347656 Z M 485.972656 237.515625 C 485.972656 237.640625 485.914062 237.75 485.894531 237.875 C 485.203125 236.859375 484.453125 235.882812 483.601562 235 L 485.949219 235 C 485.960938 235 485.96875 234.996094 485.976562 234.996094 L 485.976562 237.515625 Z M 499.917969 220.949219 C 501.410156 220.949219 502.621094 222.160156 502.621094 223.644531 L 502.621094 236.449219 C 502.621094 237.9375 501.410156 239.148438 499.917969 239.148438 C 498.429688 239.148438 497.21875 237.9375 497.21875 236.449219 L 497.21875 223.644531 C 497.21875 222.160156 498.429688 220.949219 499.917969 220.949219 Z M 491.597656 219.003906 C 493.089844 219.003906 494.296875 220.214844 494.296875 221.699219 L 494.296875 237.097656 C 494.296875 238.582031 493.089844 239.792969 491.597656 239.792969 C 490.109375 239.792969 488.898438 238.582031 488.898438 237.097656 L 488.898438 234.234375 C 490.871094 233.175781 492.238281 231.117188 492.238281 228.722656 C 492.238281 226.328125 490.875 224.273438 488.898438 223.210938 L 488.898438 221.699219 C 488.898438 220.214844 490.109375 219.003906 491.597656 219.003906 Z M 480.578125 221.355469 C 480.578125 219.867188 481.789062 218.660156 483.277344 218.660156 C 484.765625 218.660156 485.972656 219.867188 485.972656 221.355469 C 485.972656 221.398438 485.996094 221.429688 485.996094 221.46875 C 485.996094 221.546875 485.972656 221.625 485.972656 221.699219 L 485.972656 222.441406 C 485.964844 222.441406 485.957031 222.441406 485.949219 222.441406 L 480.578125 222.441406 Z M 474.960938 219.3125 C 476.449219 219.3125 477.660156 220.523438 477.660156 222.011719 L 477.660156 222.441406 L 472.261719 222.441406 L 472.261719 222.011719 C 472.261719 220.523438 473.46875 219.3125 474.960938 219.3125 Z M 474.960938 219.3125 " fill-opacity="1" fill-rule="nonzero"/><g clip-path="url(#6f7b44c421)"><path fill="#e6f6fc" d="M 485.496094 210.703125 C 486.304688 210.703125 486.960938 210.042969 486.960938 209.242188 L 486.960938 191.402344 C 486.960938 190.597656 486.304688 189.941406 485.496094 189.941406 C 484.695312 189.941406 484.035156 190.597656 484.035156 191.402344 L 484.035156 209.242188 C 484.035156 210.050781 484.695312 210.703125 485.496094 210.703125 Z M 485.496094 210.703125 " fill-opacity="1" fill-rule="nonzero"/></g><path fill="#e6f6fc" d="M 463.949219 214.484375 C 464.203125 215.011719 464.726562 215.3125 465.269531 215.3125 C 465.484375 215.3125 465.695312 215.265625 465.902344 215.167969 C 466.628906 214.820312 466.9375 213.945312 466.585938 213.21875 L 458.835938 197.144531 C 458.488281 196.417969 457.609375 196.109375 456.886719 196.464844 C 456.15625 196.8125 455.851562 197.683594 456.203125 198.410156 Z M 463.949219 214.484375 " fill-opacity="1" fill-rule="nonzero"/><path fill="#e6f6fc" d="M 435.992188 214.515625 C 435.363281 214.015625 434.445312 214.113281 433.9375 214.746094 C 433.433594 215.378906 433.539062 216.292969 434.167969 216.796875 L 448.128906 227.921875 C 448.398438 228.140625 448.714844 228.242188 449.039062 228.242188 C 449.46875 228.242188 449.894531 228.054688 450.1875 227.691406 C 450.691406 227.0625 450.589844 226.144531 449.957031 225.640625 Z M 435.992188 214.515625 " fill-opacity="1" fill-rule="nonzero"/><g clip-path="url(#4434179478)"><path fill="#e6f6fc" d="M 422.308594 242.914062 L 439.714844 246.882812 C 439.828125 246.910156 439.933594 246.921875 440.042969 246.921875 C 440.714844 246.921875 441.316406 246.46875 441.46875 245.785156 C 441.648438 245 441.15625 244.21875 440.367188 244.035156 L 422.957031 240.066406 C 422.171875 239.878906 421.386719 240.378906 421.207031 241.167969 C 421.027344 241.953125 421.519531 242.738281 422.308594 242.914062 Z M 422.308594 242.914062 " fill-opacity="1" fill-rule="nonzero"/></g><path fill="#e6f6fc" d="M 548.039062 240.066406 L 530.632812 244.035156 C 529.847656 244.222656 529.351562 245 529.535156 245.789062 C 529.691406 246.460938 530.292969 246.925781 530.957031 246.925781 C 531.066406 246.925781 531.175781 246.914062 531.285156 246.886719 L 548.691406 242.914062 C 549.480469 242.738281 549.96875 241.957031 549.792969 241.167969 C 549.609375 240.386719 548.816406 239.878906 548.039062 240.066406 Z M 548.039062 240.066406 " fill-opacity="1" fill-rule="nonzero"/><path fill="#e6f6fc" d="M 521.953125 228.242188 C 522.273438 228.242188 522.597656 228.136719 522.867188 227.921875 L 536.824219 216.796875 C 537.457031 216.292969 537.558594 215.378906 537.054688 214.746094 C 536.546875 214.113281 535.636719 214.011719 535.003906 214.515625 L 521.039062 225.640625 C 520.410156 226.144531 520.308594 227.0625 520.8125 227.691406 C 521.101562 228.054688 521.523438 228.242188 521.953125 228.242188 Z M 521.953125 228.242188 " fill-opacity="1" fill-rule="nonzero"/><path fill="#e6f6fc" d="M 514.113281 196.464844 C 513.386719 196.117188 512.511719 196.417969 512.164062 197.148438 L 504.414062 213.21875 C 504.066406 213.949219 504.371094 214.824219 505.097656 215.171875 C 505.300781 215.269531 505.523438 215.316406 505.730469 215.316406 C 506.277344 215.316406 506.796875 215.011719 507.046875 214.488281 L 514.792969 198.417969 C 515.144531 197.6875 514.839844 196.8125 514.113281 196.464844 Z M 514.113281 196.464844 " fill-opacity="1" fill-rule="nonzero"/><g clip-path="url(#2e2267b275)"><path fill="#e6f6fc" d="M 101.574219 208.339844 C 101.234375 207.972656 100.8125 207.785156 100.308594 207.785156 L 77.691406 207.785156 L 77.691406 203.875 C 78.109375 203.738281 78.507812 203.558594 78.882812 203.328125 C 79.257812 203.097656 79.601562 202.828125 79.910156 202.519531 C 80.222656 202.210938 80.492188 201.867188 80.722656 201.492188 C 80.953125 201.117188 81.136719 200.722656 81.273438 200.304688 C 81.40625 199.890625 81.492188 199.460938 81.527344 199.023438 C 81.5625 198.585938 81.546875 198.152344 81.476562 197.71875 C 81.410156 197.285156 81.289062 196.863281 81.121094 196.457031 C 80.953125 196.054688 80.742188 195.671875 80.484375 195.316406 C 80.222656 194.964844 79.929688 194.644531 79.59375 194.359375 C 79.261719 194.074219 78.898438 193.832031 78.503906 193.632812 C 78.113281 193.433594 77.703125 193.28125 77.277344 193.179688 C 76.847656 193.074219 76.414062 193.023438 75.976562 193.023438 C 75.535156 193.023438 75.101562 193.074219 74.675781 193.179688 C 74.25 193.28125 73.839844 193.433594 73.445312 193.632812 C 73.054688 193.832031 72.691406 194.074219 72.359375 194.359375 C 72.023438 194.644531 71.726562 194.964844 71.46875 195.316406 C 71.210938 195.671875 71 196.054688 70.832031 196.457031 C 70.664062 196.863281 70.542969 197.285156 70.476562 197.71875 C 70.40625 198.152344 70.390625 198.585938 70.425781 199.023438 C 70.460938 199.460938 70.542969 199.890625 70.679688 200.304688 C 70.816406 200.722656 71 201.117188 71.230469 201.492188 C 71.460938 201.867188 71.730469 202.210938 72.039062 202.519531 C 72.351562 202.828125 72.695312 203.097656 73.070312 203.328125 C 73.445312 203.558594 73.839844 203.738281 74.257812 203.875 L 74.257812 207.785156 L 62.316406 207.785156 C 61.976562 207.785156 61.667969 207.878906 61.382812 208.058594 C 61.101562 208.242188 60.890625 208.488281 60.75 208.792969 C 60.613281 209.101562 60.566406 209.421875 60.617188 209.753906 C 60.667969 210.085938 60.804688 210.378906 61.027344 210.632812 L 67.453125 217.933594 L 61.03125 225.15625 C 60.804688 225.410156 60.667969 225.703125 60.617188 226.035156 C 60.566406 226.367188 60.609375 226.6875 60.75 226.996094 C 60.886719 227.304688 61.097656 227.550781 61.382812 227.734375 C 61.664062 227.917969 61.976562 228.007812 62.316406 228.007812 L 74.257812 228.007812 L 74.257812 232.25 L 45.40625 232.25 C 44.976562 232.25 44.597656 232.394531 44.269531 232.679688 L 34.792969 241.035156 C 34.609375 241.195312 34.46875 241.390625 34.367188 241.613281 C 34.265625 241.835938 34.214844 242.070312 34.214844 242.316406 C 34.214844 242.5625 34.261719 242.796875 34.363281 243.019531 C 34.464844 243.242188 34.605469 243.4375 34.789062 243.597656 L 44.265625 252.039062 C 44.589844 252.328125 44.972656 252.472656 45.40625 252.472656 L 74.257812 252.472656 L 74.257812 269.597656 C 74.257812 269.828125 74.304688 270.042969 74.390625 270.253906 C 74.476562 270.464844 74.601562 270.648438 74.761719 270.8125 C 74.921875 270.972656 75.109375 271.09375 75.320312 271.183594 C 75.53125 271.269531 75.75 271.3125 75.976562 271.3125 C 76.203125 271.3125 76.421875 271.269531 76.632812 271.183594 C 76.84375 271.09375 77.027344 270.972656 77.191406 270.8125 C 77.351562 270.648438 77.476562 270.464844 77.5625 270.253906 C 77.648438 270.042969 77.691406 269.828125 77.691406 269.597656 L 77.691406 252.472656 L 91.941406 252.472656 C 92.296875 252.472656 92.617188 252.375 92.910156 252.175781 C 93.203125 251.976562 93.414062 251.710938 93.542969 251.382812 C 93.671875 251.054688 93.695312 250.71875 93.617188 250.375 C 93.539062 250.03125 93.367188 249.742188 93.109375 249.5 L 85.34375 242.328125 L 93.101562 235.230469 C 93.363281 234.988281 93.535156 234.699219 93.613281 234.355469 C 93.695312 234.011719 93.671875 233.671875 93.542969 233.34375 C 93.414062 233.015625 93.203125 232.75 92.914062 232.550781 C 92.621094 232.351562 92.296875 232.25 91.941406 232.25 L 77.691406 232.25 L 77.691406 228.007812 L 100.308594 228.007812 C 100.808594 228.007812 101.226562 227.824219 101.570312 227.460938 L 109.339844 219.105469 C 109.484375 218.949219 109.597656 218.769531 109.679688 218.566406 C 109.757812 218.367188 109.796875 218.160156 109.796875 217.945312 C 109.796875 217.726562 109.757812 217.519531 109.679688 217.320312 C 109.601562 217.117188 109.492188 216.9375 109.34375 216.777344 Z M 73.839844 198.613281 C 73.839844 198.328125 73.894531 198.058594 74.003906 197.796875 C 74.113281 197.535156 74.265625 197.304688 74.464844 197.105469 C 74.667969 196.90625 74.898438 196.75 75.160156 196.640625 C 75.421875 196.535156 75.691406 196.480469 75.976562 196.480469 C 76.257812 196.480469 76.53125 196.535156 76.792969 196.640625 C 77.054688 196.75 77.285156 196.90625 77.488281 197.105469 C 77.6875 197.304688 77.839844 197.535156 77.949219 197.796875 C 78.058594 198.058594 78.113281 198.328125 78.113281 198.613281 C 78.113281 198.894531 78.058594 199.167969 77.949219 199.429688 C 77.839844 199.691406 77.6875 199.921875 77.488281 200.121094 C 77.285156 200.320312 77.054688 200.472656 76.792969 200.582031 C 76.53125 200.691406 76.257812 200.746094 75.976562 200.746094 C 75.691406 200.746094 75.421875 200.691406 75.160156 200.582031 C 74.898438 200.472656 74.667969 200.320312 74.46875 200.121094 C 74.265625 199.917969 74.113281 199.6875 74.003906 199.429688 C 73.894531 199.167969 73.839844 198.894531 73.839844 198.613281 Z M 87.527344 235.679688 L 81.648438 241.058594 C 81.472656 241.21875 81.332031 241.410156 81.238281 241.628906 C 81.140625 241.847656 81.089844 242.078125 81.089844 242.316406 C 81.089844 242.554688 81.136719 242.785156 81.234375 243.003906 C 81.328125 243.226562 81.464844 243.417969 81.640625 243.578125 L 87.558594 249.046875 L 46.0625 249.046875 L 38.515625 242.328125 L 46.058594 235.679688 Z M 99.5625 224.582031 L 66.132812 224.582031 L 71.027344 219.078125 C 71.167969 218.921875 71.273438 218.746094 71.347656 218.550781 C 71.421875 218.355469 71.460938 218.152344 71.460938 217.941406 C 71.460938 217.734375 71.421875 217.53125 71.351562 217.335938 C 71.277344 217.140625 71.171875 216.964844 71.03125 216.808594 L 66.109375 211.214844 L 99.554688 211.214844 L 105.742188 217.933594 Z M 99.5625 224.582031 " fill-opacity="1" fill-rule="nonzero"/></g></svg>